<svg width="40" height="41" viewBox="0 0 40 41" fill="none" xmlns="http://www.w3.org/2000/svg">
<path d="M28.7709 17.4603C30.2187 15.6701 30.9722 13.4796 30.9722 11.01C30.9722 7.94003 29.8752 5.38968 27.7109 3.42871C25.5466 1.46775 22.7285 0.501953 19.2678 0.501953H5.45459V31.0328C6.6123 29.3995 8.34757 28.2611 10.3132 27.8453V5.66142H23.9086V8.67632H13.3455V13.5383H21.5466V16.5569H13.3455V27.8012C15.1857 28.1268 16.8523 29.085 18.0541 30.5083C19.2558 31.9317 19.9161 33.7298 19.9197 35.5882C19.9184 36.7879 19.6405 37.9713 19.1072 39.0474H21.7055C29.2658 39.0474 34.5455 34.2166 34.5455 27.2963C34.5418 22.9025 32.4255 19.368 28.7709 17.4603Z" fill="#DFE0C7"/>
<path d="M12.0027 30.3202C11.016 30.3183 10.0501 30.6037 9.22275 31.1414C8.39541 31.6791 7.7424 32.446 7.34337 33.3485C6.94433 34.251 6.81651 35.2501 6.97549 36.224C7.13447 37.1979 7.57338 38.1045 8.23869 38.8332C8.3549 38.9603 8.47655 39.082 8.60184 39.1964C8.72554 39.3087 8.85525 39.4141 8.9904 39.5123L9.01037 39.5287C9.13929 39.6213 9.27184 39.7103 9.40802 39.7884L9.45523 39.8174C9.58233 39.8919 9.71488 39.9591 9.84924 40.0208L9.9255 40.0589C10.0508 40.1152 10.1797 40.1642 10.3104 40.2096L10.4194 40.2496C10.5428 40.2895 10.6699 40.3222 10.797 40.3531C10.8424 40.364 10.886 40.3785 10.9296 40.3876C11.0585 40.4148 11.1892 40.433 11.32 40.4512L11.4562 40.473C11.6371 40.492 11.8189 40.5017 12.0009 40.502C12.1828 40.5018 12.3646 40.4921 12.5456 40.473C12.5928 40.473 12.6382 40.4584 12.6836 40.4512C12.8143 40.433 12.945 40.4148 13.0721 40.3876C13.1175 40.3876 13.1611 40.364 13.2065 40.3531C13.3336 40.3222 13.4607 40.2895 13.5842 40.2496L13.6931 40.2096C13.8239 40.1642 13.9528 40.1152 14.0781 40.0589L14.1543 40.0208C14.2887 39.9591 14.4212 39.8919 14.5483 39.8174L14.5955 39.7884C14.7317 39.7085 14.8643 39.6213 14.9914 39.5287L15.0132 39.5123C15.1468 39.4181 15.2752 39.3169 15.3981 39.2091C15.5252 39.0947 15.6468 38.973 15.7612 38.8459C16.4267 38.1171 16.8656 37.2103 17.0245 36.2362C17.1834 35.2622 17.0555 34.2629 16.6562 33.3603C16.2569 32.4578 15.6037 31.6909 14.776 31.1533C13.9484 30.6158 12.9823 30.3307 11.9954 30.3329L12.0027 30.3202Z" fill="#DFE0C7"/>
</svg>
