<svg width="594" height="644" viewBox="0 0 594 644" fill="none" xmlns="http://www.w3.org/2000/svg">
<g clip-path="url(#clip0_563_519)">
<path opacity="0.8" d="M392.299 644C503.695 644 594 553.353 594 441.534C594 329.715 503.695 239.068 392.299 239.068C280.902 239.068 190.598 329.715 190.598 441.534C190.598 553.353 280.902 644 392.299 644Z" fill="#F37255"/>
<path opacity="0.8" d="M178.57 479.989C277.192 479.989 357.14 399.92 357.14 301.151C357.14 202.382 277.192 122.314 178.57 122.314C79.9486 122.314 0 202.382 0 301.151C0 399.92 79.9486 479.989 178.57 479.989Z" fill="#F9A230"/>
<path opacity="0.7" d="M417.281 326.17C507.215 326.17 580.122 253.154 580.122 163.085C580.122 73.0156 507.215 0 417.281 0C327.346 0 254.439 73.0156 254.439 163.085C254.439 253.154 327.346 326.17 417.281 326.17Z" fill="#4A9594"/>
<path d="M366.539 175.934H364.414C364.354 175.586 364.242 175.277 364.079 175.008C363.916 174.736 363.714 174.505 363.471 174.315C363.229 174.126 362.952 173.984 362.642 173.889C362.335 173.79 362.003 173.741 361.647 173.741C361.015 173.741 360.454 173.9 359.966 174.219C359.477 174.533 359.094 174.995 358.818 175.605C358.541 176.211 358.403 176.951 358.403 177.826C358.403 178.717 358.541 179.467 358.818 180.076C359.098 180.683 359.481 181.141 359.966 181.451C360.454 181.758 361.013 181.912 361.642 181.912C361.99 181.912 362.316 181.866 362.619 181.775C362.926 181.681 363.2 181.542 363.443 181.361C363.689 181.179 363.895 180.955 364.062 180.69C364.233 180.425 364.35 180.122 364.414 179.781L366.539 179.792C366.46 180.345 366.288 180.864 366.022 181.349C365.761 181.834 365.418 182.262 364.994 182.633C364.57 183.001 364.073 183.289 363.505 183.497C362.937 183.701 362.306 183.804 361.613 183.804C360.591 183.804 359.678 183.567 358.875 183.094C358.072 182.62 357.439 181.936 356.977 181.042C356.515 180.148 356.284 179.076 356.284 177.826C356.284 176.573 356.517 175.501 356.983 174.611C357.448 173.717 358.083 173.033 358.886 172.559C359.689 172.086 360.598 171.849 361.613 171.849C362.261 171.849 362.863 171.94 363.42 172.122C363.977 172.304 364.473 172.571 364.909 172.923C365.344 173.272 365.702 173.7 365.983 174.207C366.267 174.711 366.452 175.287 366.539 175.934ZM370.89 183.821C370.337 183.821 369.839 183.722 369.396 183.525C368.957 183.325 368.608 183.029 368.35 182.639C368.097 182.249 367.97 181.768 367.97 181.196C367.97 180.703 368.061 180.296 368.243 179.974C368.424 179.652 368.672 179.395 368.987 179.201C369.301 179.008 369.655 178.862 370.049 178.764C370.447 178.662 370.858 178.588 371.282 178.542C371.794 178.489 372.208 178.442 372.527 178.4C372.845 178.355 373.076 178.287 373.22 178.196C373.368 178.101 373.441 177.955 373.441 177.758V177.724C373.441 177.296 373.314 176.965 373.061 176.73C372.807 176.495 372.441 176.378 371.964 176.378C371.46 176.378 371.061 176.487 370.765 176.707C370.474 176.927 370.277 177.186 370.174 177.486L368.254 177.213C368.405 176.683 368.655 176.239 369.004 175.883C369.352 175.523 369.779 175.255 370.282 175.076C370.786 174.895 371.343 174.804 371.953 174.804C372.373 174.804 372.792 174.853 373.208 174.951C373.625 175.05 374.006 175.213 374.35 175.44C374.695 175.664 374.972 175.969 375.18 176.355C375.392 176.741 375.498 177.224 375.498 177.804V183.645H373.521V182.446H373.453C373.328 182.688 373.152 182.915 372.924 183.128C372.701 183.336 372.419 183.505 372.078 183.633C371.741 183.758 371.345 183.821 370.89 183.821ZM371.424 182.309C371.837 182.309 372.195 182.228 372.498 182.065C372.801 181.898 373.034 181.679 373.197 181.406C373.364 181.133 373.447 180.836 373.447 180.514V179.486C373.383 179.539 373.273 179.588 373.118 179.633C372.966 179.679 372.796 179.719 372.606 179.753C372.417 179.787 372.229 179.817 372.044 179.844C371.858 179.87 371.697 179.893 371.561 179.912C371.254 179.953 370.979 180.022 370.737 180.116C370.494 180.211 370.303 180.344 370.163 180.514C370.023 180.681 369.953 180.897 369.953 181.162C369.953 181.54 370.091 181.826 370.368 182.02C370.644 182.213 370.996 182.309 371.424 182.309ZM381.924 174.917V176.508H376.907V174.917H381.924ZM378.146 172.826H380.203V181.02C380.203 181.296 380.244 181.508 380.328 181.656C380.415 181.8 380.529 181.898 380.669 181.951C380.809 182.005 380.964 182.031 381.135 182.031C381.263 182.031 381.381 182.022 381.487 182.003C381.597 181.984 381.68 181.967 381.737 181.951L382.083 183.559C381.974 183.597 381.816 183.639 381.612 183.684C381.411 183.73 381.165 183.756 380.873 183.764C380.358 183.779 379.894 183.701 379.481 183.531C379.068 183.357 378.741 183.088 378.498 182.724C378.26 182.361 378.142 181.906 378.146 181.361V172.826ZM386.156 183.821C385.603 183.821 385.105 183.722 384.662 183.525C384.222 183.325 383.874 183.029 383.616 182.639C383.362 182.249 383.235 181.768 383.235 181.196C383.235 180.703 383.326 180.296 383.508 179.974C383.69 179.652 383.938 179.395 384.252 179.201C384.567 179.008 384.921 178.862 385.315 178.764C385.713 178.662 386.124 178.588 386.548 178.542C387.059 178.489 387.474 178.442 387.792 178.4C388.11 178.355 388.341 178.287 388.485 178.196C388.633 178.101 388.707 177.955 388.707 177.758V177.724C388.707 177.296 388.58 176.965 388.326 176.73C388.073 176.495 387.707 176.378 387.23 176.378C386.726 176.378 386.326 176.487 386.031 176.707C385.739 176.927 385.542 177.186 385.44 177.486L383.52 177.213C383.671 176.683 383.921 176.239 384.27 175.883C384.618 175.523 385.044 175.255 385.548 175.076C386.052 174.895 386.609 174.804 387.218 174.804C387.639 174.804 388.057 174.853 388.474 174.951C388.891 175.05 389.271 175.213 389.616 175.44C389.961 175.664 390.237 175.969 390.446 176.355C390.658 176.741 390.764 177.224 390.764 177.804V183.645H388.787V182.446H388.718C388.593 182.688 388.417 182.915 388.19 183.128C387.966 183.336 387.684 183.505 387.343 183.633C387.006 183.758 386.61 183.821 386.156 183.821ZM386.69 182.309C387.103 182.309 387.461 182.228 387.764 182.065C388.067 181.898 388.3 181.679 388.463 181.406C388.629 181.133 388.713 180.836 388.713 180.514V179.486C388.648 179.539 388.538 179.588 388.383 179.633C388.232 179.679 388.061 179.719 387.872 179.753C387.682 179.787 387.495 179.817 387.309 179.844C387.124 179.87 386.963 179.893 386.826 179.912C386.52 179.953 386.245 180.022 386.002 180.116C385.76 180.211 385.569 180.344 385.429 180.514C385.288 180.681 385.218 180.897 385.218 181.162C385.218 181.54 385.357 181.826 385.633 182.02C385.91 182.213 386.262 182.309 386.69 182.309ZM394.889 172.008V183.645H392.832V172.008H394.889ZM398.282 186.917C398.002 186.917 397.743 186.895 397.504 186.849C397.269 186.808 397.082 186.758 396.941 186.701L397.419 185.099C397.718 185.186 397.985 185.228 398.22 185.224C398.455 185.22 398.661 185.147 398.839 185.003C399.021 184.862 399.174 184.628 399.299 184.298L399.475 183.826L396.311 174.917H398.493L400.504 181.508H400.595L402.612 174.917H404.799L401.305 184.701C401.142 185.164 400.926 185.559 400.657 185.889C400.388 186.222 400.059 186.476 399.669 186.65C399.282 186.828 398.82 186.917 398.282 186.917ZM410.581 174.917V176.508H405.564V174.917H410.581ZM406.802 172.826H408.859V181.02C408.859 181.296 408.901 181.508 408.984 181.656C409.071 181.8 409.185 181.898 409.325 181.951C409.465 182.005 409.62 182.031 409.791 182.031C409.92 182.031 410.037 182.022 410.143 182.003C410.253 181.984 410.336 181.967 410.393 181.951L410.74 183.559C410.63 183.597 410.473 183.639 410.268 183.684C410.067 183.73 409.821 183.756 409.529 183.764C409.014 183.779 408.55 183.701 408.137 183.531C407.725 183.357 407.397 183.088 407.154 182.724C406.916 182.361 406.798 181.906 406.802 181.361V172.826ZM412.301 183.645V174.917H414.358V183.645H412.301ZM413.335 173.679C413.009 173.679 412.729 173.571 412.494 173.355C412.259 173.135 412.142 172.872 412.142 172.565C412.142 172.255 412.259 171.991 412.494 171.775C412.729 171.556 413.009 171.446 413.335 171.446C413.664 171.446 413.945 171.556 414.176 171.775C414.411 171.991 414.528 172.255 414.528 172.565C414.528 172.872 414.411 173.135 414.176 173.355C413.945 173.571 413.664 173.679 413.335 173.679ZM420.279 183.815C419.408 183.815 418.66 183.624 418.035 183.241C417.414 182.859 416.935 182.33 416.598 181.656C416.264 180.978 416.098 180.198 416.098 179.315C416.098 178.429 416.268 177.647 416.609 176.969C416.95 176.287 417.431 175.756 418.052 175.378C418.677 174.995 419.416 174.804 420.268 174.804C420.976 174.804 421.603 174.934 422.149 175.196C422.698 175.453 423.136 175.819 423.461 176.292C423.787 176.762 423.973 177.311 424.018 177.94H422.052C421.973 177.52 421.783 177.169 421.484 176.889C421.189 176.605 420.793 176.463 420.296 176.463C419.876 176.463 419.507 176.576 419.189 176.804C418.87 177.027 418.622 177.349 418.444 177.77C418.27 178.19 418.183 178.694 418.183 179.281C418.183 179.876 418.27 180.387 418.444 180.815C418.618 181.239 418.863 181.567 419.177 181.798C419.495 182.025 419.868 182.139 420.296 182.139C420.6 182.139 420.87 182.082 421.109 181.969C421.351 181.851 421.554 181.683 421.717 181.463C421.88 181.243 421.992 180.976 422.052 180.662H424.018C423.969 181.279 423.787 181.826 423.473 182.304C423.158 182.777 422.73 183.148 422.189 183.417C421.647 183.683 421.011 183.815 420.279 183.815ZM435.238 179.974V174.917H437.295V183.645H435.301V182.094H435.21C435.013 182.582 434.689 182.982 434.238 183.292C433.791 183.603 433.24 183.758 432.585 183.758C432.013 183.758 431.507 183.631 431.068 183.378C430.632 183.12 430.291 182.747 430.045 182.258C429.799 181.766 429.676 181.171 429.676 180.474V174.917H431.733V180.156C431.733 180.709 431.884 181.148 432.187 181.474C432.49 181.8 432.888 181.963 433.38 181.963C433.683 181.963 433.977 181.889 434.261 181.741C434.545 181.594 434.778 181.374 434.96 181.082C435.145 180.787 435.238 180.417 435.238 179.974ZM446.308 177.224L444.433 177.429C444.38 177.239 444.287 177.061 444.154 176.895C444.026 176.728 443.851 176.594 443.632 176.491C443.412 176.389 443.143 176.338 442.825 176.338C442.397 176.338 442.037 176.431 441.745 176.616C441.457 176.802 441.315 177.042 441.319 177.338C441.315 177.592 441.408 177.798 441.598 177.957C441.791 178.116 442.109 178.247 442.552 178.349L444.041 178.667C444.867 178.845 445.48 179.128 445.882 179.514C446.287 179.9 446.492 180.406 446.495 181.031C446.492 181.58 446.331 182.065 446.012 182.486C445.698 182.902 445.261 183.228 444.7 183.463C444.139 183.698 443.495 183.815 442.768 183.815C441.7 183.815 440.84 183.592 440.189 183.145C439.537 182.694 439.149 182.067 439.024 181.264L441.029 181.071C441.12 181.465 441.314 181.762 441.609 181.963C441.904 182.164 442.289 182.264 442.762 182.264C443.251 182.264 443.643 182.164 443.939 181.963C444.238 181.762 444.387 181.514 444.387 181.219C444.387 180.969 444.291 180.762 444.098 180.599C443.908 180.436 443.613 180.311 443.211 180.224L441.723 179.912C440.886 179.737 440.266 179.444 439.865 179.031C439.463 178.614 439.264 178.088 439.268 177.451C439.264 176.914 439.41 176.448 439.706 176.054C440.005 175.656 440.42 175.349 440.95 175.133C441.484 174.914 442.1 174.804 442.796 174.804C443.819 174.804 444.624 175.022 445.211 175.457C445.802 175.893 446.168 176.482 446.308 177.224ZM452.055 183.815C451.18 183.815 450.424 183.633 449.788 183.27C449.155 182.902 448.669 182.383 448.328 181.713C447.987 181.039 447.816 180.245 447.816 179.332C447.816 178.434 447.987 177.647 448.328 176.969C448.672 176.287 449.154 175.756 449.771 175.378C450.388 174.995 451.114 174.804 451.947 174.804C452.485 174.804 452.993 174.891 453.47 175.065C453.951 175.236 454.375 175.501 454.743 175.861C455.114 176.22 455.405 176.679 455.618 177.236C455.83 177.789 455.936 178.448 455.936 179.213V179.844H448.782V178.457H453.964C453.96 178.063 453.875 177.713 453.708 177.406C453.542 177.095 453.309 176.851 453.01 176.673C452.714 176.495 452.369 176.406 451.975 176.406C451.555 176.406 451.186 176.508 450.868 176.713C450.549 176.914 450.301 177.179 450.123 177.508C449.949 177.834 449.86 178.192 449.856 178.582V179.792C449.856 180.3 449.949 180.736 450.135 181.099C450.32 181.459 450.58 181.736 450.913 181.929C451.246 182.118 451.636 182.213 452.083 182.213C452.383 182.213 452.654 182.171 452.896 182.088C453.138 182.001 453.349 181.874 453.527 181.707C453.705 181.54 453.839 181.334 453.93 181.088L455.85 181.304C455.729 181.811 455.498 182.255 455.157 182.633C454.82 183.008 454.388 183.3 453.862 183.508C453.335 183.713 452.733 183.815 452.055 183.815ZM465.451 183.815C464.599 183.815 463.86 183.628 463.235 183.253C462.61 182.878 462.126 182.353 461.781 181.679C461.44 181.005 461.27 180.217 461.27 179.315C461.27 178.414 461.44 177.624 461.781 176.946C462.126 176.268 462.61 175.741 463.235 175.366C463.86 174.991 464.599 174.804 465.451 174.804C466.304 174.804 467.042 174.991 467.667 175.366C468.292 175.741 468.775 176.268 469.116 176.946C469.461 177.624 469.633 178.414 469.633 179.315C469.633 180.217 469.461 181.005 469.116 181.679C468.775 182.353 468.292 182.878 467.667 183.253C467.042 183.628 466.304 183.815 465.451 183.815ZM465.463 182.167C465.925 182.167 466.311 182.04 466.622 181.787C466.932 181.529 467.163 181.184 467.315 180.753C467.47 180.321 467.548 179.84 467.548 179.309C467.548 178.775 467.47 178.292 467.315 177.861C467.163 177.425 466.932 177.078 466.622 176.821C466.311 176.563 465.925 176.434 465.463 176.434C464.989 176.434 464.595 176.563 464.281 176.821C463.97 177.078 463.737 177.425 463.582 177.861C463.43 178.292 463.355 178.775 463.355 179.309C463.355 179.84 463.43 180.321 463.582 180.753C463.737 181.184 463.97 181.529 464.281 181.787C464.595 182.04 464.989 182.167 465.463 182.167ZM475.799 174.917V176.508H470.64V174.917H475.799ZM471.93 183.645V174.094C471.93 173.506 472.051 173.018 472.294 172.628C472.54 172.237 472.869 171.946 473.282 171.753C473.695 171.559 474.154 171.463 474.657 171.463C475.013 171.463 475.33 171.491 475.606 171.548C475.883 171.605 476.087 171.656 476.22 171.701L475.811 173.292C475.724 173.266 475.614 173.239 475.481 173.213C475.349 173.183 475.201 173.167 475.038 173.167C474.655 173.167 474.385 173.26 474.225 173.446C474.07 173.628 473.993 173.889 473.993 174.23V183.645H471.93ZM341.748 202.815C340.877 202.815 340.129 202.624 339.504 202.241C338.883 201.859 338.404 201.33 338.066 200.656C337.733 199.978 337.566 199.198 337.566 198.315C337.566 197.429 337.737 196.647 338.078 195.969C338.419 195.287 338.9 194.756 339.521 194.378C340.146 193.995 340.885 193.804 341.737 193.804C342.445 193.804 343.072 193.934 343.618 194.196C344.167 194.453 344.604 194.819 344.93 195.292C345.256 195.762 345.441 196.311 345.487 196.94H343.521C343.441 196.52 343.252 196.169 342.953 195.889C342.657 195.605 342.261 195.463 341.765 195.463C341.345 195.463 340.975 195.576 340.657 195.804C340.339 196.027 340.091 196.349 339.913 196.77C339.739 197.19 339.652 197.694 339.652 198.281C339.652 198.876 339.739 199.387 339.913 199.815C340.087 200.239 340.332 200.567 340.646 200.798C340.964 201.025 341.337 201.139 341.765 201.139C342.068 201.139 342.339 201.082 342.578 200.969C342.82 200.851 343.023 200.683 343.186 200.463C343.349 200.243 343.46 199.976 343.521 199.662H345.487C345.438 200.279 345.256 200.826 344.941 201.304C344.627 201.777 344.199 202.148 343.657 202.417C343.116 202.683 342.479 202.815 341.748 202.815ZM350.983 202.815C350.13 202.815 349.392 202.628 348.767 202.253C348.142 201.878 347.657 201.353 347.312 200.679C346.971 200.005 346.801 199.217 346.801 198.315C346.801 197.414 346.971 196.624 347.312 195.946C347.657 195.268 348.142 194.741 348.767 194.366C349.392 193.991 350.13 193.804 350.983 193.804C351.835 193.804 352.573 193.991 353.198 194.366C353.823 194.741 354.306 195.268 354.647 195.946C354.992 196.624 355.164 197.414 355.164 198.315C355.164 199.217 354.992 200.005 354.647 200.679C354.306 201.353 353.823 201.878 353.198 202.253C352.573 202.628 351.835 202.815 350.983 202.815ZM350.994 201.167C351.456 201.167 351.842 201.04 352.153 200.787C352.464 200.529 352.695 200.184 352.846 199.753C353.002 199.321 353.079 198.84 353.079 198.309C353.079 197.775 353.002 197.292 352.846 196.861C352.695 196.425 352.464 196.078 352.153 195.821C351.842 195.563 351.456 195.434 350.994 195.434C350.52 195.434 350.127 195.563 349.812 195.821C349.502 196.078 349.269 196.425 349.113 196.861C348.962 197.292 348.886 197.775 348.886 198.309C348.886 198.84 348.962 199.321 349.113 199.753C349.269 200.184 349.502 200.529 349.812 200.787C350.127 201.04 350.52 201.167 350.994 201.167ZM358.967 197.531V202.645H356.91V193.917H358.876V195.4H358.978C359.179 194.912 359.499 194.523 359.939 194.236C360.382 193.948 360.929 193.804 361.581 193.804C362.183 193.804 362.707 193.933 363.154 194.19C363.605 194.448 363.954 194.821 364.2 195.309C364.45 195.798 364.573 196.391 364.569 197.088V202.645H362.512V197.406C362.512 196.823 362.361 196.366 362.058 196.037C361.759 195.707 361.344 195.542 360.814 195.542C360.454 195.542 360.134 195.622 359.853 195.781C359.577 195.936 359.359 196.162 359.2 196.457C359.045 196.753 358.967 197.111 358.967 197.531ZM370.467 202.815C369.596 202.815 368.848 202.624 368.223 202.241C367.601 201.859 367.122 201.33 366.785 200.656C366.452 199.978 366.285 199.198 366.285 198.315C366.285 197.429 366.456 196.647 366.796 195.969C367.137 195.287 367.618 194.756 368.24 194.378C368.865 193.995 369.603 193.804 370.456 193.804C371.164 193.804 371.791 193.934 372.336 194.196C372.886 194.453 373.323 194.819 373.649 195.292C373.975 195.762 374.16 196.311 374.206 196.94H372.24C372.16 196.52 371.971 196.169 371.671 195.889C371.376 195.605 370.98 195.463 370.484 195.463C370.064 195.463 369.694 195.576 369.376 195.804C369.058 196.027 368.81 196.349 368.632 196.77C368.457 197.19 368.37 197.694 368.37 198.281C368.37 198.876 368.457 199.387 368.632 199.815C368.806 200.239 369.05 200.567 369.365 200.798C369.683 201.025 370.056 201.139 370.484 201.139C370.787 201.139 371.058 201.082 371.296 200.969C371.539 200.851 371.742 200.683 371.904 200.463C372.067 200.243 372.179 199.976 372.24 199.662H374.206C374.156 200.279 373.975 200.826 373.66 201.304C373.346 201.777 372.918 202.148 372.376 202.417C371.834 202.683 371.198 202.815 370.467 202.815ZM379.758 202.815C378.883 202.815 378.127 202.633 377.491 202.27C376.859 201.902 376.372 201.383 376.031 200.713C375.69 200.039 375.52 199.245 375.52 198.332C375.52 197.434 375.69 196.647 376.031 195.969C376.376 195.287 376.857 194.756 377.474 194.378C378.091 193.995 378.817 193.804 379.65 193.804C380.188 193.804 380.696 193.891 381.173 194.065C381.654 194.236 382.078 194.501 382.446 194.861C382.817 195.22 383.109 195.679 383.321 196.236C383.533 196.789 383.639 197.448 383.639 198.213V198.844H376.485V197.457H381.667C381.663 197.063 381.578 196.713 381.412 196.406C381.245 196.095 381.012 195.851 380.713 195.673C380.417 195.495 380.073 195.406 379.679 195.406C379.258 195.406 378.889 195.508 378.571 195.713C378.252 195.914 378.004 196.179 377.826 196.508C377.652 196.834 377.563 197.192 377.559 197.582V198.792C377.559 199.3 377.652 199.736 377.838 200.099C378.023 200.459 378.283 200.736 378.616 200.929C378.949 201.118 379.34 201.213 379.787 201.213C380.086 201.213 380.357 201.171 380.599 201.088C380.841 201.001 381.052 200.874 381.23 200.707C381.408 200.54 381.542 200.334 381.633 200.088L383.554 200.304C383.432 200.811 383.201 201.255 382.86 201.633C382.523 202.008 382.091 202.3 381.565 202.508C381.038 202.713 380.436 202.815 379.758 202.815ZM392.277 196.224L390.402 196.429C390.349 196.239 390.256 196.061 390.123 195.895C389.994 195.728 389.82 195.594 389.6 195.491C389.381 195.389 389.112 195.338 388.794 195.338C388.366 195.338 388.006 195.431 387.714 195.616C387.426 195.802 387.284 196.042 387.288 196.338C387.284 196.592 387.377 196.798 387.566 196.957C387.76 197.116 388.078 197.247 388.521 197.349L390.01 197.667C390.835 197.845 391.449 198.128 391.85 198.514C392.256 198.9 392.46 199.406 392.464 200.031C392.46 200.58 392.299 201.065 391.981 201.486C391.667 201.902 391.229 202.228 390.669 202.463C390.108 202.698 389.464 202.815 388.737 202.815C387.669 202.815 386.809 202.592 386.157 202.145C385.506 201.694 385.118 201.067 384.993 200.264L386.998 200.071C387.089 200.465 387.282 200.762 387.578 200.963C387.873 201.164 388.258 201.264 388.731 201.264C389.22 201.264 389.612 201.164 389.907 200.963C390.207 200.762 390.356 200.514 390.356 200.219C390.356 199.969 390.26 199.762 390.066 199.599C389.877 199.436 389.582 199.311 389.18 199.224L387.691 198.912C386.854 198.737 386.235 198.444 385.833 198.031C385.432 197.614 385.233 197.088 385.237 196.451C385.233 195.914 385.379 195.448 385.674 195.054C385.974 194.656 386.388 194.349 386.919 194.133C387.453 193.914 388.068 193.804 388.765 193.804C389.788 193.804 390.593 194.022 391.18 194.457C391.771 194.893 392.136 195.482 392.277 196.224ZM401.058 196.224L399.183 196.429C399.13 196.239 399.037 196.061 398.904 195.895C398.776 195.728 398.601 195.594 398.382 195.491C398.162 195.389 397.893 195.338 397.575 195.338C397.147 195.338 396.787 195.431 396.495 195.616C396.207 195.802 396.065 196.042 396.069 196.338C396.065 196.592 396.158 196.798 396.348 196.957C396.541 197.116 396.859 197.247 397.302 197.349L398.791 197.667C399.617 197.845 400.23 198.128 400.632 198.514C401.037 198.9 401.242 199.406 401.245 200.031C401.242 200.58 401.081 201.065 400.762 201.486C400.448 201.902 400.011 202.228 399.45 202.463C398.889 202.698 398.245 202.815 397.518 202.815C396.45 202.815 395.59 202.592 394.939 202.145C394.287 201.694 393.899 201.067 393.774 200.264L395.779 200.071C395.87 200.465 396.064 200.762 396.359 200.963C396.654 201.164 397.039 201.264 397.512 201.264C398.001 201.264 398.393 201.164 398.689 200.963C398.988 200.762 399.137 200.514 399.137 200.219C399.137 199.969 399.041 199.762 398.848 199.599C398.658 199.436 398.363 199.311 397.961 199.224L396.473 198.912C395.636 198.737 395.016 198.444 394.615 198.031C394.213 197.614 394.014 197.088 394.018 196.451C394.014 195.914 394.16 195.448 394.456 195.054C394.755 194.656 395.17 194.349 395.7 194.133C396.234 193.914 396.85 193.804 397.546 193.804C398.569 193.804 399.374 194.022 399.961 194.457C400.552 194.893 400.918 195.482 401.058 196.224ZM402.941 202.645V193.917H404.998V202.645H402.941ZM403.975 192.679C403.65 192.679 403.369 192.571 403.135 192.355C402.9 192.135 402.782 191.872 402.782 191.565C402.782 191.255 402.9 190.991 403.135 190.775C403.369 190.556 403.65 190.446 403.975 190.446C404.305 190.446 404.585 190.556 404.816 190.775C405.051 190.991 405.169 191.255 405.169 191.565C405.169 191.872 405.051 192.135 404.816 192.355C404.585 192.571 404.305 192.679 403.975 192.679ZM410.92 202.815C410.068 202.815 409.329 202.628 408.704 202.253C408.079 201.878 407.594 201.353 407.25 200.679C406.909 200.005 406.738 199.217 406.738 198.315C406.738 197.414 406.909 196.624 407.25 195.946C407.594 195.268 408.079 194.741 408.704 194.366C409.329 193.991 410.068 193.804 410.92 193.804C411.772 193.804 412.511 193.991 413.136 194.366C413.761 194.741 414.244 195.268 414.585 195.946C414.93 196.624 415.102 197.414 415.102 198.315C415.102 199.217 414.93 200.005 414.585 200.679C414.244 201.353 413.761 201.878 413.136 202.253C412.511 202.628 411.772 202.815 410.92 202.815ZM410.931 201.167C411.394 201.167 411.78 201.04 412.091 200.787C412.401 200.529 412.632 200.184 412.784 199.753C412.939 199.321 413.017 198.84 413.017 198.309C413.017 197.775 412.939 197.292 412.784 196.861C412.632 196.425 412.401 196.078 412.091 195.821C411.78 195.563 411.394 195.434 410.931 195.434C410.458 195.434 410.064 195.563 409.75 195.821C409.439 196.078 409.206 196.425 409.051 196.861C408.899 197.292 408.823 197.775 408.823 198.309C408.823 198.84 408.899 199.321 409.051 199.753C409.206 200.184 409.439 200.529 409.75 200.787C410.064 201.04 410.458 201.167 410.931 201.167ZM418.904 197.531V202.645H416.848V193.917H418.814V195.4H418.916C419.117 194.912 419.437 194.523 419.876 194.236C420.319 193.948 420.867 193.804 421.518 193.804C422.12 193.804 422.645 193.933 423.092 194.19C423.543 194.448 423.891 194.821 424.137 195.309C424.387 195.798 424.511 196.391 424.507 197.088V202.645H422.45V197.406C422.45 196.823 422.298 196.366 421.995 196.037C421.696 195.707 421.281 195.542 420.751 195.542C420.391 195.542 420.071 195.622 419.791 195.781C419.514 195.936 419.296 196.162 419.137 196.457C418.982 196.753 418.904 197.111 418.904 197.531ZM429.109 202.821C428.556 202.821 428.058 202.722 427.615 202.525C427.175 202.325 426.827 202.029 426.569 201.639C426.315 201.249 426.189 200.768 426.189 200.196C426.189 199.703 426.279 199.296 426.461 198.974C426.643 198.652 426.891 198.395 427.206 198.201C427.52 198.008 427.874 197.862 428.268 197.764C428.666 197.662 429.077 197.588 429.501 197.542C430.012 197.489 430.427 197.442 430.745 197.4C431.064 197.355 431.295 197.287 431.439 197.196C431.586 197.101 431.66 196.955 431.66 196.758V196.724C431.66 196.296 431.533 195.965 431.279 195.73C431.026 195.495 430.66 195.378 430.183 195.378C429.679 195.378 429.279 195.487 428.984 195.707C428.692 195.927 428.495 196.186 428.393 196.486L426.473 196.213C426.624 195.683 426.874 195.239 427.223 194.883C427.571 194.523 427.997 194.255 428.501 194.076C429.005 193.895 429.562 193.804 430.171 193.804C430.592 193.804 431.011 193.853 431.427 193.951C431.844 194.05 432.225 194.213 432.569 194.44C432.914 194.664 433.19 194.969 433.399 195.355C433.611 195.741 433.717 196.224 433.717 196.804V202.645H431.74V201.446H431.671C431.546 201.688 431.37 201.915 431.143 202.128C430.92 202.336 430.637 202.505 430.296 202.633C429.959 202.758 429.564 202.821 429.109 202.821ZM429.643 201.309C430.056 201.309 430.414 201.228 430.717 201.065C431.02 200.898 431.253 200.679 431.416 200.406C431.582 200.133 431.666 199.836 431.666 199.514V198.486C431.601 198.539 431.492 198.588 431.336 198.633C431.185 198.679 431.014 198.719 430.825 198.753C430.636 198.787 430.448 198.817 430.262 198.844C430.077 198.87 429.916 198.893 429.779 198.912C429.473 198.953 429.198 199.022 428.956 199.116C428.713 199.211 428.522 199.344 428.382 199.514C428.242 199.681 428.171 199.897 428.171 200.162C428.171 200.54 428.31 200.826 428.586 201.02C428.863 201.213 429.215 201.309 429.643 201.309ZM437.842 191.008V202.645H435.785V191.008H437.842ZM447.733 202.815C446.861 202.815 446.113 202.624 445.488 202.241C444.867 201.859 444.388 201.33 444.051 200.656C443.717 199.978 443.551 199.198 443.551 198.315C443.551 197.429 443.721 196.647 444.062 195.969C444.403 195.287 444.884 194.756 445.505 194.378C446.13 193.995 446.869 193.804 447.721 193.804C448.43 193.804 449.056 193.934 449.602 194.196C450.151 194.453 450.589 194.819 450.914 195.292C451.24 195.762 451.426 196.311 451.471 196.94H449.505C449.426 196.52 449.236 196.169 448.937 195.889C448.642 195.605 448.246 195.463 447.75 195.463C447.329 195.463 446.96 195.576 446.642 195.804C446.323 196.027 446.075 196.349 445.897 196.77C445.723 197.19 445.636 197.694 445.636 198.281C445.636 198.876 445.723 199.387 445.897 199.815C446.072 200.239 446.316 200.567 446.63 200.798C446.948 201.025 447.322 201.139 447.75 201.139C448.053 201.139 448.323 201.082 448.562 200.969C448.805 200.851 449.007 200.683 449.17 200.463C449.333 200.243 449.445 199.976 449.505 199.662H451.471C451.422 200.279 451.24 200.826 450.926 201.304C450.611 201.777 450.183 202.148 449.642 202.417C449.1 202.683 448.464 202.815 447.733 202.815ZM455.671 202.821C455.118 202.821 454.62 202.722 454.177 202.525C453.738 202.325 453.389 202.029 453.132 201.639C452.878 201.249 452.751 200.768 452.751 200.196C452.751 199.703 452.842 199.296 453.024 198.974C453.206 198.652 453.454 198.395 453.768 198.201C454.082 198.008 454.437 197.862 454.831 197.764C455.228 197.662 455.639 197.588 456.064 197.542C456.575 197.489 456.99 197.442 457.308 197.4C457.626 197.355 457.857 197.287 458.001 197.196C458.149 197.101 458.223 196.955 458.223 196.758V196.724C458.223 196.296 458.096 195.965 457.842 195.73C457.588 195.495 457.223 195.378 456.745 195.378C456.242 195.378 455.842 195.487 455.546 195.707C455.255 195.927 455.058 196.186 454.956 196.486L453.035 196.213C453.187 195.683 453.437 195.239 453.785 194.883C454.134 194.523 454.56 194.255 455.064 194.076C455.567 193.895 456.124 193.804 456.734 193.804C457.154 193.804 457.573 193.853 457.99 193.951C458.406 194.05 458.787 194.213 459.132 194.44C459.476 194.664 459.753 194.969 459.961 195.355C460.173 195.741 460.279 196.224 460.279 196.804V202.645H458.302V201.446H458.234C458.109 201.688 457.933 201.915 457.706 202.128C457.482 202.336 457.2 202.505 456.859 202.633C456.522 202.758 456.126 202.821 455.671 202.821ZM456.206 201.309C456.618 201.309 456.976 201.228 457.279 201.065C457.582 200.898 457.815 200.679 457.978 200.406C458.145 200.133 458.228 199.836 458.228 199.514V198.486C458.164 198.539 458.054 198.588 457.899 198.633C457.747 198.679 457.577 198.719 457.387 198.753C457.198 198.787 457.011 198.817 456.825 198.844C456.639 198.87 456.478 198.893 456.342 198.912C456.035 198.953 455.761 199.022 455.518 199.116C455.276 199.211 455.084 199.344 454.944 199.514C454.804 199.681 454.734 199.897 454.734 200.162C454.734 200.54 454.872 200.826 455.149 201.02C455.425 201.213 455.778 201.309 456.206 201.309ZM462.348 205.917V193.917H464.37V195.361H464.49C464.596 195.148 464.745 194.923 464.939 194.684C465.132 194.442 465.393 194.236 465.723 194.065C466.052 193.891 466.473 193.804 466.984 193.804C467.658 193.804 468.266 193.976 468.808 194.321C469.353 194.662 469.785 195.167 470.103 195.838C470.425 196.505 470.586 197.323 470.586 198.292C470.586 199.251 470.429 200.065 470.115 200.736C469.8 201.406 469.372 201.917 468.831 202.27C468.289 202.622 467.675 202.798 466.99 202.798C466.49 202.798 466.075 202.715 465.745 202.548C465.416 202.381 465.151 202.181 464.95 201.946C464.753 201.707 464.6 201.482 464.49 201.27H464.404V205.917H462.348ZM464.365 198.281C464.365 198.845 464.444 199.34 464.603 199.764C464.766 200.188 464.999 200.52 465.302 200.758C465.609 200.993 465.98 201.111 466.416 201.111C466.87 201.111 467.251 200.989 467.558 200.747C467.865 200.501 468.096 200.165 468.251 199.741C468.41 199.313 468.49 198.826 468.49 198.281C468.49 197.739 468.412 197.258 468.257 196.838C468.101 196.417 467.87 196.088 467.564 195.849C467.257 195.611 466.874 195.491 466.416 195.491C465.976 195.491 465.603 195.607 465.296 195.838C464.99 196.069 464.757 196.393 464.598 196.809C464.442 197.226 464.365 197.717 464.365 198.281ZM472.348 202.645V193.917H474.404V202.645H472.348ZM473.382 192.679C473.056 192.679 472.776 192.571 472.541 192.355C472.306 192.135 472.189 191.872 472.189 191.565C472.189 191.255 472.306 190.991 472.541 190.775C472.776 190.556 473.056 190.446 473.382 190.446C473.711 190.446 473.992 190.556 474.223 190.775C474.457 190.991 474.575 191.255 474.575 191.565C474.575 191.872 474.457 192.135 474.223 192.355C473.992 192.571 473.711 192.679 473.382 192.679ZM480.877 193.917V195.508H475.86V193.917H480.877ZM477.099 191.826H479.156V200.02C479.156 200.296 479.198 200.508 479.281 200.656C479.368 200.8 479.482 200.898 479.622 200.951C479.762 201.005 479.917 201.031 480.088 201.031C480.216 201.031 480.334 201.022 480.44 201.003C480.55 200.984 480.633 200.967 480.69 200.951L481.037 202.559C480.927 202.597 480.77 202.639 480.565 202.684C480.364 202.73 480.118 202.756 479.826 202.764C479.311 202.779 478.847 202.701 478.434 202.531C478.021 202.357 477.694 202.088 477.451 201.724C477.213 201.361 477.095 200.906 477.099 200.361V191.826ZM485.109 202.821C484.556 202.821 484.058 202.722 483.615 202.525C483.175 202.325 482.827 202.029 482.569 201.639C482.315 201.249 482.189 200.768 482.189 200.196C482.189 199.703 482.279 199.296 482.461 198.974C482.643 198.652 482.891 198.395 483.206 198.201C483.52 198.008 483.874 197.862 484.268 197.764C484.666 197.662 485.077 197.588 485.501 197.542C486.012 197.489 486.427 197.442 486.745 197.4C487.064 197.355 487.295 197.287 487.439 197.196C487.586 197.101 487.66 196.955 487.66 196.758V196.724C487.66 196.296 487.533 195.965 487.279 195.73C487.026 195.495 486.66 195.378 486.183 195.378C485.679 195.378 485.279 195.487 484.984 195.707C484.692 195.927 484.495 196.186 484.393 196.486L482.473 196.213C482.624 195.683 482.874 195.239 483.223 194.883C483.571 194.523 483.997 194.255 484.501 194.076C485.005 193.895 485.562 193.804 486.171 193.804C486.592 193.804 487.011 193.853 487.427 193.951C487.844 194.05 488.225 194.213 488.569 194.44C488.914 194.664 489.19 194.969 489.399 195.355C489.611 195.741 489.717 196.224 489.717 196.804V202.645H487.74V201.446H487.671C487.546 201.688 487.37 201.915 487.143 202.128C486.92 202.336 486.637 202.505 486.296 202.633C485.959 202.758 485.564 202.821 485.109 202.821ZM485.643 201.309C486.056 201.309 486.414 201.228 486.717 201.065C487.02 200.898 487.253 200.679 487.416 200.406C487.582 200.133 487.666 199.836 487.666 199.514V198.486C487.601 198.539 487.492 198.588 487.336 198.633C487.185 198.679 487.014 198.719 486.825 198.753C486.636 198.787 486.448 198.817 486.262 198.844C486.077 198.87 485.916 198.893 485.779 198.912C485.473 198.953 485.198 199.022 484.956 199.116C484.713 199.211 484.522 199.344 484.382 199.514C484.242 199.681 484.171 199.897 484.171 200.162C484.171 200.54 484.31 200.826 484.586 201.02C484.863 201.213 485.215 201.309 485.643 201.309ZM493.842 191.008V202.645H491.785V191.008H493.842Z" fill="#3C5154"/>
<path d="M112.4 322.637V311.001H116.764C117.658 311.001 118.408 311.156 119.014 311.467C119.624 311.778 120.084 312.213 120.395 312.774C120.709 313.331 120.866 313.98 120.866 314.723C120.866 315.469 120.707 316.117 120.389 316.666C120.075 317.211 119.611 317.634 118.997 317.933C118.383 318.228 117.63 318.376 116.736 318.376H113.628V316.626H116.452C116.974 316.626 117.402 316.554 117.736 316.41C118.069 316.262 118.315 316.048 118.474 315.768C118.637 315.484 118.719 315.136 118.719 314.723C118.719 314.31 118.637 313.958 118.474 313.666C118.311 313.37 118.063 313.147 117.73 312.995C117.397 312.84 116.967 312.762 116.44 312.762H114.508V322.637H112.4ZM118.412 317.365L121.293 322.637H118.94L116.111 317.365H118.412ZM126.454 322.808C125.579 322.808 124.824 322.626 124.187 322.262C123.555 321.895 123.068 321.376 122.727 320.706C122.386 320.031 122.216 319.238 122.216 318.325C122.216 317.427 122.386 316.639 122.727 315.961C123.072 315.279 123.553 314.749 124.17 314.37C124.788 313.988 125.513 313.797 126.346 313.797C126.884 313.797 127.392 313.884 127.869 314.058C128.35 314.228 128.775 314.494 129.142 314.853C129.513 315.213 129.805 315.672 130.017 316.228C130.229 316.781 130.335 317.44 130.335 318.206V318.836H123.182V317.45H128.364C128.36 317.056 128.275 316.706 128.108 316.399C127.941 316.088 127.708 315.844 127.409 315.666C127.114 315.488 126.769 315.399 126.375 315.399C125.954 315.399 125.585 315.501 125.267 315.706C124.949 315.906 124.701 316.172 124.523 316.501C124.348 316.827 124.259 317.185 124.256 317.575V318.785C124.256 319.293 124.348 319.728 124.534 320.092C124.72 320.452 124.979 320.728 125.312 320.922C125.646 321.111 126.036 321.206 126.483 321.206C126.782 321.206 127.053 321.164 127.295 321.081C127.538 320.994 127.748 320.867 127.926 320.7C128.104 320.533 128.239 320.327 128.329 320.081L130.25 320.297C130.129 320.804 129.898 321.247 129.557 321.626C129.22 322.001 128.788 322.293 128.261 322.501C127.735 322.706 127.132 322.808 126.454 322.808ZM134.587 322.814C134.034 322.814 133.535 322.715 133.092 322.518C132.653 322.317 132.304 322.022 132.047 321.632C131.793 321.242 131.666 320.761 131.666 320.189C131.666 319.696 131.757 319.289 131.939 318.967C132.121 318.645 132.369 318.387 132.683 318.194C132.998 318.001 133.352 317.855 133.746 317.757C134.143 317.654 134.554 317.581 134.979 317.535C135.49 317.482 135.905 317.435 136.223 317.393C136.541 317.348 136.772 317.279 136.916 317.189C137.064 317.094 137.138 316.948 137.138 316.751V316.717C137.138 316.289 137.011 315.958 136.757 315.723C136.503 315.488 136.138 315.37 135.66 315.37C135.157 315.37 134.757 315.48 134.462 315.7C134.17 315.92 133.973 316.179 133.871 316.478L131.95 316.206C132.102 315.675 132.352 315.232 132.7 314.876C133.049 314.516 133.475 314.247 133.979 314.069C134.482 313.887 135.039 313.797 135.649 313.797C136.069 313.797 136.488 313.846 136.905 313.944C137.321 314.043 137.702 314.206 138.047 314.433C138.391 314.656 138.668 314.961 138.876 315.348C139.088 315.734 139.194 316.217 139.194 316.797V322.637H137.217V321.439H137.149C137.024 321.681 136.848 321.908 136.621 322.12C136.397 322.329 136.115 322.497 135.774 322.626C135.437 322.751 135.041 322.814 134.587 322.814ZM135.121 321.302C135.534 321.302 135.891 321.221 136.194 321.058C136.498 320.891 136.73 320.672 136.893 320.399C137.06 320.126 137.143 319.829 137.143 319.507V318.478C137.079 318.531 136.969 318.581 136.814 318.626C136.662 318.672 136.492 318.711 136.302 318.745C136.113 318.779 135.926 318.81 135.74 318.836C135.554 318.863 135.393 318.886 135.257 318.904C134.95 318.946 134.676 319.014 134.433 319.109C134.191 319.204 133.999 319.336 133.859 319.507C133.719 319.673 133.649 319.889 133.649 320.154C133.649 320.533 133.787 320.819 134.064 321.012C134.34 321.206 134.693 321.302 135.121 321.302ZM143.319 311.001V322.637H141.263V311.001H143.319ZM145.435 322.637V313.91H147.491V322.637H145.435ZM146.469 312.672C146.143 312.672 145.863 312.564 145.628 312.348C145.393 312.128 145.275 311.865 145.275 311.558C145.275 311.247 145.393 310.984 145.628 310.768C145.863 310.548 146.143 310.439 146.469 310.439C146.798 310.439 147.078 310.548 147.31 310.768C147.544 310.984 147.662 311.247 147.662 311.558C147.662 311.865 147.544 312.128 147.31 312.348C147.078 312.564 146.798 312.672 146.469 312.672ZM149.493 322.637V321.331L153.993 315.689V315.615H149.641V313.91H156.51V315.314L152.226 320.859V320.933H156.658V322.637H149.493ZM162.204 322.808C161.329 322.808 160.574 322.626 159.937 322.262C159.305 321.895 158.818 321.376 158.477 320.706C158.136 320.031 157.966 319.238 157.966 318.325C157.966 317.427 158.136 316.639 158.477 315.961C158.822 315.279 159.303 314.749 159.92 314.37C160.538 313.988 161.263 313.797 162.096 313.797C162.634 313.797 163.142 313.884 163.619 314.058C164.1 314.228 164.525 314.494 164.892 314.853C165.263 315.213 165.555 315.672 165.767 316.228C165.979 316.781 166.085 317.44 166.085 318.206V318.836H158.932V317.45H164.114C164.11 317.056 164.025 316.706 163.858 316.399C163.691 316.088 163.458 315.844 163.159 315.666C162.864 315.488 162.519 315.399 162.125 315.399C161.704 315.399 161.335 315.501 161.017 315.706C160.699 315.906 160.451 316.172 160.273 316.501C160.098 316.827 160.009 317.185 160.006 317.575V318.785C160.006 319.293 160.098 319.728 160.284 320.092C160.47 320.452 160.729 320.728 161.062 320.922C161.396 321.111 161.786 321.206 162.233 321.206C162.532 321.206 162.803 321.164 163.045 321.081C163.288 320.994 163.498 320.867 163.676 320.7C163.854 320.533 163.989 320.327 164.079 320.081L166 320.297C165.879 320.804 165.648 321.247 165.307 321.626C164.97 322.001 164.538 322.293 164.011 322.501C163.485 322.706 162.882 322.808 162.204 322.808ZM176.152 313.91V315.501H171.135V313.91H176.152ZM172.373 311.819H174.43V320.012C174.43 320.289 174.472 320.501 174.555 320.649C174.642 320.793 174.756 320.891 174.896 320.944C175.036 320.997 175.192 321.024 175.362 321.024C175.491 321.024 175.608 321.014 175.714 320.995C175.824 320.976 175.908 320.959 175.964 320.944L176.311 322.552C176.201 322.59 176.044 322.632 175.839 322.677C175.639 322.723 175.392 322.749 175.101 322.757C174.586 322.772 174.122 322.694 173.709 322.524C173.296 322.35 172.968 322.081 172.726 321.717C172.487 321.353 172.37 320.899 172.373 320.353V311.819ZM180.116 317.524V322.637H178.06V311.001H180.071V315.393H180.173C180.378 314.901 180.694 314.512 181.122 314.228C181.554 313.94 182.103 313.797 182.77 313.797C183.376 313.797 183.904 313.923 184.355 314.177C184.806 314.431 185.154 314.802 185.4 315.291C185.65 315.779 185.775 316.376 185.775 317.081V322.637H183.719V317.399C183.719 316.812 183.567 316.355 183.264 316.029C182.965 315.7 182.544 315.535 182.003 315.535C181.639 315.535 181.313 315.615 181.025 315.774C180.741 315.929 180.518 316.154 180.355 316.45C180.196 316.745 180.116 317.103 180.116 317.524ZM191.736 322.808C190.861 322.808 190.105 322.626 189.469 322.262C188.836 321.895 188.349 321.376 188.008 320.706C187.668 320.031 187.497 319.238 187.497 318.325C187.497 317.427 187.668 316.639 188.008 315.961C188.353 315.279 188.834 314.749 189.452 314.37C190.069 313.988 190.794 313.797 191.628 313.797C192.166 313.797 192.673 313.884 193.15 314.058C193.632 314.228 194.056 314.494 194.423 314.853C194.794 315.213 195.086 315.672 195.298 316.228C195.51 316.781 195.616 317.44 195.616 318.206V318.836H188.463V317.45H193.645C193.641 317.056 193.556 316.706 193.389 316.399C193.222 316.088 192.989 315.844 192.69 315.666C192.395 315.488 192.05 315.399 191.656 315.399C191.236 315.399 190.866 315.501 190.548 315.706C190.23 315.906 189.982 316.172 189.804 316.501C189.63 316.827 189.541 317.185 189.537 317.575V318.785C189.537 319.293 189.63 319.728 189.815 320.092C190.001 320.452 190.26 320.728 190.594 320.922C190.927 321.111 191.317 321.206 191.764 321.206C192.063 321.206 192.334 321.164 192.577 321.081C192.819 320.994 193.029 320.867 193.207 320.7C193.385 320.533 193.52 320.327 193.611 320.081L195.531 320.297C195.41 320.804 195.179 321.247 194.838 321.626C194.501 322.001 194.069 322.293 193.543 322.501C193.016 322.706 192.414 322.808 191.736 322.808ZM207.74 314.2C207.687 313.704 207.463 313.317 207.069 313.041C206.679 312.764 206.172 312.626 205.547 312.626C205.107 312.626 204.73 312.692 204.416 312.825C204.102 312.958 203.861 313.137 203.694 313.365C203.528 313.592 203.443 313.851 203.439 314.143C203.439 314.386 203.494 314.596 203.604 314.774C203.717 314.952 203.871 315.103 204.064 315.228C204.257 315.35 204.471 315.452 204.706 315.535C204.941 315.619 205.177 315.689 205.416 315.745L206.507 316.018C206.946 316.12 207.369 316.259 207.774 316.433C208.183 316.607 208.549 316.827 208.871 317.092C209.196 317.357 209.454 317.677 209.643 318.052C209.833 318.427 209.927 318.867 209.927 319.37C209.927 320.052 209.753 320.653 209.405 321.172C209.056 321.687 208.552 322.09 207.893 322.382C207.238 322.67 206.444 322.814 205.513 322.814C204.607 322.814 203.821 322.673 203.155 322.393C202.492 322.113 201.973 321.704 201.598 321.166C201.227 320.628 201.026 319.973 200.996 319.2H203.069C203.1 319.605 203.225 319.942 203.444 320.211C203.664 320.48 203.95 320.681 204.302 320.814C204.659 320.946 205.056 321.012 205.496 321.012C205.954 321.012 206.355 320.944 206.7 320.808C207.049 320.668 207.321 320.475 207.518 320.228C207.715 319.978 207.816 319.687 207.819 319.353C207.816 319.05 207.727 318.8 207.552 318.603C207.378 318.403 207.134 318.236 206.819 318.103C206.509 317.967 206.145 317.846 205.729 317.74L204.405 317.399C203.446 317.153 202.689 316.779 202.132 316.279C201.579 315.776 201.302 315.107 201.302 314.274C201.302 313.588 201.488 312.988 201.859 312.473C202.234 311.958 202.744 311.558 203.388 311.274C204.032 310.986 204.761 310.842 205.575 310.842C206.401 310.842 207.124 310.986 207.746 311.274C208.371 311.558 208.861 311.954 209.217 312.461C209.573 312.965 209.757 313.545 209.768 314.2H207.74ZM215.75 322.637H211.807V311.001H215.829C216.985 311.001 217.977 311.234 218.807 311.7C219.64 312.162 220.28 312.827 220.727 313.694C221.174 314.562 221.398 315.6 221.398 316.808C221.398 318.02 221.172 319.062 220.721 319.933C220.275 320.804 219.629 321.473 218.784 321.939C217.943 322.404 216.932 322.637 215.75 322.637ZM213.915 320.814H215.648C216.458 320.814 217.134 320.666 217.676 320.37C218.218 320.071 218.625 319.626 218.898 319.035C219.17 318.44 219.307 317.698 219.307 316.808C219.307 315.918 219.17 315.179 218.898 314.592C218.625 314.001 218.221 313.56 217.687 313.268C217.157 312.973 216.498 312.825 215.71 312.825H213.915V320.814ZM231.196 314.717C231.101 314.41 230.971 314.136 230.804 313.893C230.641 313.647 230.444 313.437 230.213 313.262C229.986 313.088 229.724 312.958 229.429 312.87C229.133 312.779 228.811 312.734 228.463 312.734C227.838 312.734 227.281 312.891 226.793 313.206C226.304 313.52 225.919 313.982 225.639 314.592C225.363 315.198 225.224 315.937 225.224 316.808C225.224 317.687 225.363 318.431 225.639 319.041C225.916 319.651 226.3 320.115 226.793 320.433C227.285 320.747 227.857 320.904 228.508 320.904C229.099 320.904 229.611 320.791 230.043 320.564C230.478 320.336 230.813 320.014 231.048 319.598C231.283 319.177 231.4 318.685 231.4 318.12L231.878 318.194H228.719V316.547H233.44V317.944C233.44 318.94 233.228 319.802 232.804 320.529C232.38 321.257 231.796 321.817 231.054 322.211C230.311 322.601 229.459 322.797 228.497 322.797C227.425 322.797 226.484 322.556 225.673 322.075C224.866 321.59 224.236 320.903 223.781 320.012C223.33 319.119 223.105 318.058 223.105 316.831C223.105 315.891 223.238 315.052 223.503 314.314C223.772 313.575 224.147 312.948 224.628 312.433C225.109 311.914 225.673 311.52 226.321 311.251C226.969 310.978 227.673 310.842 228.435 310.842C229.078 310.842 229.679 310.937 230.236 311.126C230.793 311.312 231.287 311.577 231.719 311.922C232.154 312.266 232.512 312.675 232.793 313.149C233.073 313.622 233.257 314.145 233.344 314.717H231.196ZM242.285 316.217L240.41 316.422C240.357 316.232 240.265 316.054 240.132 315.887C240.003 315.721 239.829 315.586 239.609 315.484C239.39 315.382 239.121 315.331 238.802 315.331C238.374 315.331 238.015 315.423 237.723 315.609C237.435 315.795 237.293 316.035 237.297 316.331C237.293 316.584 237.386 316.791 237.575 316.95C237.768 317.109 238.087 317.24 238.53 317.342L240.018 317.66C240.844 317.838 241.458 318.12 241.859 318.507C242.265 318.893 242.469 319.399 242.473 320.024C242.469 320.573 242.308 321.058 241.99 321.478C241.676 321.895 241.238 322.221 240.677 322.456C240.117 322.69 239.473 322.808 238.746 322.808C237.677 322.808 236.818 322.584 236.166 322.137C235.515 321.687 235.126 321.06 235.001 320.257L237.007 320.064C237.098 320.458 237.291 320.755 237.587 320.956C237.882 321.156 238.266 321.257 238.74 321.257C239.229 321.257 239.621 321.156 239.916 320.956C240.215 320.755 240.365 320.507 240.365 320.211C240.365 319.961 240.268 319.755 240.075 319.592C239.886 319.429 239.59 319.304 239.189 319.217L237.7 318.904C236.863 318.73 236.244 318.437 235.842 318.024C235.441 317.607 235.242 317.081 235.246 316.444C235.242 315.906 235.388 315.44 235.683 315.047C235.982 314.649 236.397 314.342 236.927 314.126C237.462 313.906 238.077 313.797 238.774 313.797C239.797 313.797 240.602 314.014 241.189 314.45C241.78 314.886 242.145 315.475 242.285 316.217Z" fill="#3C5154"/>
<path d="M292.752 456.739C292.752 457.992 292.517 459.066 292.047 459.96C291.581 460.85 290.945 461.532 290.138 462.006C289.335 462.479 288.424 462.716 287.405 462.716C286.386 462.716 285.473 462.479 284.667 462.006C283.864 461.528 283.227 460.845 282.758 459.955C282.292 459.061 282.059 457.989 282.059 456.739C282.059 455.485 282.292 454.413 282.758 453.523C283.227 452.629 283.864 451.945 284.667 451.472C285.473 450.998 286.386 450.761 287.405 450.761C288.424 450.761 289.335 450.998 290.138 451.472C290.945 451.945 291.581 452.629 292.047 453.523C292.517 454.413 292.752 455.485 292.752 456.739ZM290.633 456.739C290.633 455.856 290.494 455.112 290.218 454.506C289.945 453.896 289.566 453.436 289.081 453.125C288.597 452.811 288.038 452.653 287.405 452.653C286.773 452.653 286.214 452.811 285.729 453.125C285.244 453.436 284.864 453.896 284.587 454.506C284.314 455.112 284.178 455.856 284.178 456.739C284.178 457.621 284.314 458.367 284.587 458.977C284.864 459.583 285.244 460.044 285.729 460.358C286.214 460.669 286.773 460.824 287.405 460.824C288.038 460.824 288.597 460.669 289.081 460.358C289.566 460.044 289.945 459.583 290.218 458.977C290.494 458.367 290.633 457.621 290.633 456.739ZM294.654 465.83V453.83H296.677V455.273H296.796C296.902 455.061 297.052 454.835 297.245 454.597C297.438 454.354 297.699 454.148 298.029 453.977C298.358 453.803 298.779 453.716 299.29 453.716C299.964 453.716 300.572 453.888 301.114 454.233C301.66 454.574 302.091 455.08 302.41 455.75C302.731 456.417 302.892 457.235 302.892 458.205C302.892 459.163 302.735 459.977 302.421 460.648C302.106 461.318 301.678 461.83 301.137 462.182C300.595 462.534 299.981 462.71 299.296 462.71C298.796 462.71 298.381 462.627 298.052 462.46C297.722 462.294 297.457 462.093 297.256 461.858C297.059 461.619 296.906 461.394 296.796 461.182H296.711V465.83H294.654ZM296.671 458.193C296.671 458.758 296.75 459.252 296.91 459.676C297.072 460.1 297.305 460.432 297.608 460.671C297.915 460.905 298.286 461.023 298.722 461.023C299.177 461.023 299.557 460.902 299.864 460.659C300.171 460.413 300.402 460.078 300.557 459.653C300.716 459.225 300.796 458.739 300.796 458.193C300.796 457.652 300.718 457.171 300.563 456.75C300.408 456.33 300.177 456 299.87 455.761C299.563 455.523 299.18 455.403 298.722 455.403C298.283 455.403 297.91 455.519 297.603 455.75C297.296 455.981 297.063 456.305 296.904 456.722C296.749 457.138 296.671 457.629 296.671 458.193ZM309.012 453.83V455.421H303.995V453.83H309.012ZM305.233 451.739H307.29V459.932C307.29 460.208 307.332 460.421 307.415 460.568C307.502 460.712 307.616 460.811 307.756 460.864C307.896 460.917 308.052 460.943 308.222 460.943C308.351 460.943 308.468 460.934 308.574 460.915C308.684 460.896 308.767 460.879 308.824 460.864L309.171 462.472C309.061 462.51 308.904 462.551 308.699 462.597C308.499 462.642 308.252 462.669 307.961 462.676C307.446 462.691 306.981 462.614 306.569 462.443C306.156 462.269 305.828 462 305.586 461.636C305.347 461.273 305.23 460.818 305.233 460.273V451.739ZM310.732 462.557V453.83H312.789V462.557H310.732ZM311.766 452.591C311.44 452.591 311.16 452.483 310.925 452.267C310.69 452.047 310.573 451.784 310.573 451.477C310.573 451.167 310.69 450.903 310.925 450.688C311.16 450.468 311.44 450.358 311.766 450.358C312.096 450.358 312.376 450.468 312.607 450.688C312.842 450.903 312.959 451.167 312.959 451.477C312.959 451.784 312.842 452.047 312.607 452.267C312.376 452.483 312.096 452.591 311.766 452.591ZM314.904 462.557V453.83H316.87V455.313H316.972C317.154 454.813 317.455 454.422 317.875 454.142C318.296 453.858 318.798 453.716 319.381 453.716C319.972 453.716 320.47 453.86 320.875 454.148C321.285 454.432 321.572 454.82 321.739 455.313H321.83C322.023 454.828 322.349 454.441 322.807 454.153C323.269 453.862 323.817 453.716 324.449 453.716C325.252 453.716 325.908 453.97 326.415 454.477C326.923 454.985 327.177 455.725 327.177 456.699V462.557H325.114V457.017C325.114 456.475 324.97 456.08 324.682 455.83C324.394 455.576 324.042 455.449 323.625 455.449C323.129 455.449 322.741 455.604 322.461 455.915C322.184 456.222 322.046 456.621 322.046 457.114V462.557H320.029V456.932C320.029 456.481 319.892 456.121 319.62 455.852C319.351 455.583 318.999 455.449 318.563 455.449C318.267 455.449 317.999 455.525 317.756 455.676C317.514 455.824 317.321 456.034 317.177 456.307C317.033 456.576 316.961 456.89 316.961 457.25V462.557H314.904ZM329.263 462.557V453.83H331.32V462.557H329.263ZM330.297 452.591C329.972 452.591 329.691 452.483 329.456 452.267C329.222 452.047 329.104 451.784 329.104 451.477C329.104 451.167 329.222 450.903 329.456 450.688C329.691 450.468 329.972 450.358 330.297 450.358C330.627 450.358 330.907 450.468 331.138 450.688C331.373 450.903 331.49 451.167 331.49 451.477C331.49 451.784 331.373 452.047 331.138 452.267C330.907 452.483 330.627 452.591 330.297 452.591ZM333.321 462.557V461.25L337.821 455.608V455.534H333.469V453.83H340.338V455.233L336.054 460.778V460.852H340.486V462.557H333.321ZM346.033 462.727C345.158 462.727 344.402 462.546 343.766 462.182C343.133 461.814 342.647 461.296 342.306 460.625C341.965 459.951 341.794 459.157 341.794 458.244C341.794 457.347 341.965 456.559 342.306 455.881C342.651 455.199 343.132 454.669 343.749 454.29C344.366 453.907 345.092 453.716 345.925 453.716C346.463 453.716 346.971 453.803 347.448 453.977C347.929 454.148 348.353 454.413 348.721 454.773C349.092 455.133 349.383 455.591 349.596 456.148C349.808 456.701 349.914 457.36 349.914 458.125V458.756H342.76V457.369H347.942C347.938 456.975 347.853 456.625 347.687 456.318C347.52 456.008 347.287 455.763 346.988 455.585C346.692 455.407 346.347 455.318 345.954 455.318C345.533 455.318 345.164 455.421 344.846 455.625C344.527 455.826 344.279 456.091 344.101 456.421C343.927 456.746 343.838 457.104 343.834 457.494V458.705C343.834 459.212 343.927 459.648 344.113 460.011C344.298 460.371 344.558 460.648 344.891 460.841C345.224 461.03 345.615 461.125 346.062 461.125C346.361 461.125 346.632 461.083 346.874 461C347.116 460.913 347.327 460.786 347.505 460.619C347.683 460.453 347.817 460.246 347.908 460L349.829 460.216C349.707 460.724 349.476 461.167 349.135 461.546C348.798 461.921 348.366 462.212 347.84 462.421C347.313 462.625 346.711 462.727 346.033 462.727ZM355.623 462.557V453.83H357.617V455.284H357.708C357.867 454.78 358.14 454.392 358.526 454.119C358.916 453.843 359.361 453.705 359.861 453.705C359.975 453.705 360.102 453.71 360.242 453.722C360.386 453.729 360.505 453.742 360.6 453.761V455.653C360.513 455.623 360.374 455.597 360.185 455.574C359.999 455.547 359.82 455.534 359.645 455.534C359.27 455.534 358.933 455.616 358.634 455.778C358.338 455.938 358.106 456.159 357.935 456.443C357.765 456.727 357.679 457.055 357.679 457.426V462.557H355.623ZM361.966 462.557V453.83H364.023V462.557H361.966ZM363 452.591C362.675 452.591 362.394 452.483 362.16 452.267C361.925 452.047 361.807 451.784 361.807 451.477C361.807 451.167 361.925 450.903 362.16 450.688C362.394 450.468 362.675 450.358 363 450.358C363.33 450.358 363.61 450.468 363.841 450.688C364.076 450.903 364.194 451.167 364.194 451.477C364.194 451.784 364.076 452.047 363.841 452.267C363.61 452.483 363.33 452.591 363 452.591ZM373.036 456.136L371.161 456.341C371.108 456.152 371.015 455.974 370.883 455.807C370.754 455.64 370.579 455.506 370.36 455.403C370.14 455.301 369.871 455.25 369.553 455.25C369.125 455.25 368.765 455.343 368.473 455.528C368.186 455.714 368.044 455.955 368.047 456.25C368.044 456.504 368.136 456.71 368.326 456.869C368.519 457.028 368.837 457.159 369.28 457.261L370.769 457.58C371.595 457.758 372.208 458.04 372.61 458.426C373.015 458.813 373.22 459.318 373.223 459.943C373.22 460.492 373.059 460.977 372.74 461.398C372.426 461.814 371.989 462.14 371.428 462.375C370.867 462.61 370.223 462.727 369.496 462.727C368.428 462.727 367.568 462.504 366.917 462.057C366.265 461.606 365.877 460.979 365.752 460.176L367.758 459.983C367.848 460.377 368.042 460.674 368.337 460.875C368.633 461.076 369.017 461.176 369.49 461.176C369.979 461.176 370.371 461.076 370.667 460.875C370.966 460.674 371.115 460.426 371.115 460.131C371.115 459.881 371.019 459.674 370.826 459.511C370.636 459.349 370.341 459.224 369.939 459.136L368.451 458.824C367.614 458.65 366.994 458.356 366.593 457.943C366.191 457.527 365.992 457 365.996 456.364C365.992 455.826 366.138 455.36 366.434 454.966C366.733 454.568 367.148 454.261 367.678 454.046C368.212 453.826 368.828 453.716 369.525 453.716C370.547 453.716 371.352 453.934 371.939 454.369C372.53 454.805 372.896 455.394 373.036 456.136ZM376.794 459.818L376.789 457.335H377.118L380.255 453.83H382.658L378.8 458.125H378.374L376.794 459.818ZM374.919 462.557V450.921H376.976V462.557H374.919ZM380.397 462.557L377.556 458.585L378.942 457.136L382.857 462.557H380.397ZM388.881 456.864V458.557H383.642V456.864H388.881ZM391.044 462.557V453.83H393.039V455.284H393.13C393.289 454.78 393.562 454.392 393.948 454.119C394.338 453.843 394.783 453.705 395.283 453.705C395.397 453.705 395.524 453.71 395.664 453.722C395.808 453.729 395.927 453.742 396.022 453.761V455.653C395.935 455.623 395.796 455.597 395.607 455.574C395.421 455.547 395.241 455.534 395.067 455.534C394.692 455.534 394.355 455.616 394.056 455.778C393.76 455.938 393.527 456.159 393.357 456.443C393.187 456.727 393.101 457.055 393.101 457.426V462.557H391.044ZM400.892 462.727C400.017 462.727 399.262 462.546 398.625 462.182C397.993 461.814 397.506 461.296 397.165 460.625C396.824 459.951 396.654 459.157 396.654 458.244C396.654 457.347 396.824 456.559 397.165 455.881C397.51 455.199 397.991 454.669 398.608 454.29C399.226 453.907 399.951 453.716 400.785 453.716C401.322 453.716 401.83 453.803 402.307 453.977C402.788 454.148 403.213 454.413 403.58 454.773C403.951 455.133 404.243 455.591 404.455 456.148C404.667 456.701 404.773 457.36 404.773 458.125V458.756H397.62V457.369H402.802C402.798 456.975 402.713 456.625 402.546 456.318C402.379 456.008 402.146 455.763 401.847 455.585C401.552 455.407 401.207 455.318 400.813 455.318C400.392 455.318 400.023 455.421 399.705 455.625C399.387 455.826 399.139 456.091 398.961 456.421C398.786 456.746 398.697 457.104 398.694 457.494V458.705C398.694 459.212 398.786 459.648 398.972 460.011C399.158 460.371 399.417 460.648 399.75 460.841C400.084 461.03 400.474 461.125 400.921 461.125C401.22 461.125 401.491 461.083 401.733 461C401.976 460.913 402.186 460.786 402.364 460.619C402.542 460.453 402.677 460.246 402.767 460L404.688 460.216C404.567 460.724 404.336 461.167 403.995 461.546C403.658 461.921 403.226 462.212 402.699 462.421C402.173 462.625 401.571 462.727 400.892 462.727ZM410.871 453.83V455.421H405.854V453.83H410.871ZM407.093 451.739H409.15V459.932C409.15 460.208 409.191 460.421 409.275 460.568C409.362 460.712 409.475 460.811 409.615 460.864C409.756 460.917 409.911 460.943 410.081 460.943C410.21 460.943 410.328 460.934 410.434 460.915C410.544 460.896 410.627 460.879 410.684 460.864L411.03 462.472C410.92 462.51 410.763 462.551 410.559 462.597C410.358 462.642 410.112 462.669 409.82 462.676C409.305 462.691 408.841 462.614 408.428 462.443C408.015 462.269 407.687 462 407.445 461.636C407.206 461.273 407.089 460.818 407.093 460.273V451.739ZM418.154 458.886V453.83H420.211V462.557H418.216V461.006H418.125C417.928 461.494 417.605 461.894 417.154 462.205C416.707 462.515 416.156 462.671 415.5 462.671C414.928 462.671 414.423 462.544 413.983 462.29C413.548 462.032 413.207 461.659 412.961 461.171C412.714 460.678 412.591 460.083 412.591 459.386V453.83H414.648V459.068C414.648 459.621 414.8 460.061 415.103 460.386C415.406 460.712 415.803 460.875 416.296 460.875C416.599 460.875 416.892 460.801 417.177 460.653C417.461 460.506 417.694 460.286 417.875 459.994C418.061 459.699 418.154 459.33 418.154 458.886ZM422.326 462.557V453.83H424.32V455.284H424.411C424.57 454.78 424.843 454.392 425.229 454.119C425.619 453.843 426.064 453.705 426.564 453.705C426.678 453.705 426.805 453.71 426.945 453.722C427.089 453.729 427.208 453.742 427.303 453.761V455.653C427.216 455.623 427.078 455.597 426.888 455.574C426.703 455.547 426.523 455.534 426.348 455.534C425.973 455.534 425.636 455.616 425.337 455.778C425.042 455.938 424.809 456.159 424.638 456.443C424.468 456.727 424.383 457.055 424.383 457.426V462.557H422.326ZM430.726 457.443V462.557H428.669V453.83H430.635V455.313H430.738C430.938 454.824 431.258 454.436 431.698 454.148C432.141 453.86 432.688 453.716 433.34 453.716C433.942 453.716 434.467 453.845 434.914 454.102C435.365 454.36 435.713 454.733 435.959 455.222C436.209 455.71 436.332 456.303 436.329 457V462.557H434.272V457.318C434.272 456.735 434.12 456.278 433.817 455.949C433.518 455.619 433.103 455.455 432.573 455.455C432.213 455.455 431.893 455.534 431.613 455.693C431.336 455.849 431.118 456.074 430.959 456.369C430.804 456.665 430.726 457.023 430.726 457.443ZM442.388 465.83V453.83H444.411V455.273H444.53C444.636 455.061 444.786 454.835 444.979 454.597C445.172 454.354 445.434 454.148 445.763 453.977C446.093 453.803 446.513 453.716 447.025 453.716C447.699 453.716 448.307 453.888 448.848 454.233C449.394 454.574 449.826 455.08 450.144 455.75C450.466 456.417 450.627 457.235 450.627 458.205C450.627 459.163 450.47 459.977 450.155 460.648C449.841 461.318 449.413 461.83 448.871 462.182C448.329 462.534 447.716 462.71 447.03 462.71C446.53 462.71 446.115 462.627 445.786 462.46C445.456 462.294 445.191 462.093 444.99 461.858C444.794 461.619 444.64 461.394 444.53 461.182H444.445V465.83H442.388ZM444.405 458.193C444.405 458.758 444.485 459.252 444.644 459.676C444.807 460.1 445.04 460.432 445.343 460.671C445.65 460.905 446.021 461.023 446.456 461.023C446.911 461.023 447.292 460.902 447.598 460.659C447.905 460.413 448.136 460.078 448.292 459.653C448.451 459.225 448.53 458.739 448.53 458.193C448.53 457.652 448.453 457.171 448.297 456.75C448.142 456.33 447.911 456 447.604 455.761C447.297 455.523 446.915 455.403 446.456 455.403C446.017 455.403 445.644 455.519 445.337 455.75C445.03 455.981 444.797 456.305 444.638 456.722C444.483 457.138 444.405 457.629 444.405 458.193ZM452.388 462.557V453.83H454.383V455.284H454.473C454.633 454.78 454.905 454.392 455.292 454.119C455.682 453.843 456.127 453.705 456.627 453.705C456.74 453.705 456.867 453.71 457.008 453.722C457.151 453.729 457.271 453.742 457.365 453.761V455.653C457.278 455.623 457.14 455.597 456.951 455.574C456.765 455.547 456.585 455.534 456.411 455.534C456.036 455.534 455.699 455.616 455.4 455.778C455.104 455.938 454.871 456.159 454.701 456.443C454.53 456.727 454.445 457.055 454.445 457.426V462.557H452.388ZM462.179 462.727C461.327 462.727 460.588 462.54 459.963 462.165C459.338 461.79 458.854 461.265 458.509 460.591C458.168 459.917 457.998 459.129 457.998 458.227C457.998 457.326 458.168 456.536 458.509 455.858C458.854 455.18 459.338 454.653 459.963 454.278C460.588 453.903 461.327 453.716 462.179 453.716C463.032 453.716 463.77 453.903 464.395 454.278C465.02 454.653 465.503 455.18 465.844 455.858C466.189 456.536 466.361 457.326 466.361 458.227C466.361 459.129 466.189 459.917 465.844 460.591C465.503 461.265 465.02 461.79 464.395 462.165C463.77 462.54 463.032 462.727 462.179 462.727ZM462.191 461.08C462.653 461.08 463.039 460.953 463.35 460.699C463.66 460.441 463.892 460.097 464.043 459.665C464.198 459.233 464.276 458.752 464.276 458.222C464.276 457.688 464.198 457.205 464.043 456.773C463.892 456.337 463.66 455.991 463.35 455.733C463.039 455.475 462.653 455.347 462.191 455.347C461.717 455.347 461.323 455.475 461.009 455.733C460.698 455.991 460.465 456.337 460.31 456.773C460.159 457.205 460.083 457.688 460.083 458.222C460.083 458.752 460.159 459.233 460.31 459.665C460.465 460.097 460.698 460.441 461.009 460.699C461.323 460.953 461.717 461.08 462.191 461.08ZM472.527 453.83V455.421H467.368V453.83H472.527ZM468.658 462.557V453.006C468.658 452.419 468.779 451.93 469.022 451.54C469.268 451.15 469.597 450.858 470.01 450.665C470.423 450.472 470.882 450.375 471.385 450.375C471.741 450.375 472.058 450.403 472.334 450.46C472.611 450.517 472.815 450.568 472.948 450.614L472.539 452.205C472.452 452.178 472.342 452.152 472.209 452.125C472.077 452.095 471.929 452.08 471.766 452.08C471.383 452.08 471.113 452.172 470.954 452.358C470.798 452.54 470.721 452.801 470.721 453.142V462.557H468.658ZM474.138 462.557V453.83H476.195V462.557H474.138ZM475.172 452.591C474.847 452.591 474.566 452.483 474.331 452.267C474.097 452.047 473.979 451.784 473.979 451.477C473.979 451.167 474.097 450.903 474.331 450.688C474.566 450.468 474.847 450.358 475.172 450.358C475.502 450.358 475.782 450.468 476.013 450.688C476.248 450.903 476.365 451.167 476.365 451.477C476.365 451.784 476.248 452.047 476.013 452.267C475.782 452.483 475.502 452.591 475.172 452.591ZM480.367 450.921V462.557H478.31V450.921H480.367ZM486.346 462.727C485.471 462.727 484.715 462.546 484.079 462.182C483.446 461.814 482.959 461.296 482.618 460.625C482.277 459.951 482.107 459.157 482.107 458.244C482.107 457.347 482.277 456.559 482.618 455.881C482.963 455.199 483.444 454.669 484.062 454.29C484.679 453.907 485.404 453.716 486.238 453.716C486.776 453.716 487.283 453.803 487.76 453.977C488.241 454.148 488.666 454.413 489.033 454.773C489.404 455.133 489.696 455.591 489.908 456.148C490.12 456.701 490.226 457.36 490.226 458.125V458.756H483.073V457.369H488.255C488.251 456.975 488.166 456.625 487.999 456.318C487.832 456.008 487.599 455.763 487.3 455.585C487.005 455.407 486.66 455.318 486.266 455.318C485.846 455.318 485.476 455.421 485.158 455.625C484.84 455.826 484.592 456.091 484.414 456.421C484.24 456.746 484.151 457.104 484.147 457.494V458.705C484.147 459.212 484.24 459.648 484.425 460.011C484.611 460.371 484.87 460.648 485.204 460.841C485.537 461.03 485.927 461.125 486.374 461.125C486.673 461.125 486.944 461.083 487.187 461C487.429 460.913 487.639 460.786 487.817 460.619C487.995 460.453 488.13 460.246 488.221 460L490.141 460.216C490.02 460.724 489.789 461.167 489.448 461.546C489.111 461.921 488.679 462.212 488.152 462.421C487.626 462.625 487.024 462.727 486.346 462.727ZM498.864 456.136L496.989 456.341C496.936 456.152 496.843 455.974 496.711 455.807C496.582 455.64 496.408 455.506 496.188 455.403C495.968 455.301 495.699 455.25 495.381 455.25C494.953 455.25 494.593 455.343 494.302 455.528C494.014 455.714 493.872 455.955 493.875 456.25C493.872 456.504 493.964 456.71 494.154 456.869C494.347 457.028 494.665 457.159 495.108 457.261L496.597 457.58C497.423 457.758 498.036 458.04 498.438 458.426C498.843 458.813 499.048 459.318 499.052 459.943C499.048 460.492 498.887 460.977 498.569 461.398C498.254 461.814 497.817 462.14 497.256 462.375C496.696 462.61 496.052 462.727 495.324 462.727C494.256 462.727 493.396 462.504 492.745 462.057C492.093 461.606 491.705 460.979 491.58 460.176L493.586 459.983C493.677 460.377 493.87 460.674 494.165 460.875C494.461 461.076 494.845 461.176 495.319 461.176C495.807 461.176 496.199 461.076 496.495 460.875C496.794 460.674 496.944 460.426 496.944 460.131C496.944 459.881 496.847 459.674 496.654 459.511C496.464 459.349 496.169 459.224 495.767 459.136L494.279 458.824C493.442 458.65 492.822 458.356 492.421 457.943C492.019 457.527 491.821 457 491.824 456.364C491.821 455.826 491.966 455.36 492.262 454.966C492.561 454.568 492.976 454.261 493.506 454.046C494.04 453.826 494.656 453.716 495.353 453.716C496.375 453.716 497.18 453.934 497.767 454.369C498.358 454.805 498.724 455.394 498.864 456.136Z" fill="#3C5154"/>
<path d="M337.031 152.414V126.233H343.359V147.275H354.251V152.414H337.031ZM366.706 152.785C364.652 152.785 362.88 152.38 361.388 151.571C359.905 150.752 358.763 149.589 357.962 148.081C357.169 146.564 356.773 144.761 356.773 142.673C356.773 140.645 357.174 138.872 357.975 137.355C358.776 135.829 359.905 134.645 361.363 133.801C362.82 132.949 364.537 132.522 366.515 132.522C367.912 132.522 369.191 132.74 370.35 133.174C371.509 133.609 372.51 134.252 373.354 135.105C374.198 135.957 374.854 137.01 375.323 138.262C375.792 139.507 376.026 140.934 376.026 142.545V144.105H358.959V140.474H370.209C370.201 139.809 370.043 139.217 369.736 138.697C369.429 138.177 369.008 137.772 368.471 137.483C367.942 137.184 367.333 137.035 366.642 137.035C365.944 137.035 365.317 137.193 364.763 137.508C364.209 137.815 363.77 138.237 363.446 138.774C363.123 139.302 362.952 139.903 362.935 140.576V144.271C362.935 145.072 363.093 145.775 363.408 146.38C363.723 146.977 364.171 147.441 364.75 147.774C365.33 148.106 366.02 148.272 366.821 148.272C367.375 148.272 367.878 148.196 368.33 148.042C368.782 147.889 369.169 147.663 369.493 147.365C369.817 147.066 370.06 146.7 370.222 146.265L375.962 146.431C375.723 147.718 375.199 148.839 374.39 149.794C373.588 150.74 372.536 151.477 371.232 152.005C369.928 152.525 368.419 152.785 366.706 152.785ZM397.74 132.778L391.003 152.414H383.843L377.119 132.778H383.703L387.321 146.304H387.525L391.156 132.778H397.74ZM408.683 152.785C406.629 152.785 404.856 152.38 403.365 151.571C401.882 150.752 400.74 149.589 399.939 148.081C399.146 146.564 398.75 144.761 398.75 142.673C398.75 140.645 399.15 138.872 399.951 137.355C400.753 135.829 401.882 134.645 403.339 133.801C404.797 132.949 406.514 132.522 408.491 132.522C409.889 132.522 411.167 132.74 412.326 133.174C413.485 133.609 414.487 134.252 415.331 135.105C416.174 135.957 416.831 137.01 417.299 138.262C417.768 139.507 418.003 140.934 418.003 142.545V144.105H400.936V140.474H412.186C412.177 139.809 412.02 139.217 411.713 138.697C411.406 138.177 410.984 137.772 410.447 137.483C409.919 137.184 409.309 137.035 408.619 137.035C407.92 137.035 407.294 137.193 406.74 137.508C406.186 137.815 405.747 138.237 405.423 138.774C405.099 139.302 404.929 139.903 404.912 140.576V144.271C404.912 145.072 405.069 145.775 405.385 146.38C405.7 146.977 406.147 147.441 406.727 147.774C407.307 148.106 407.997 148.272 408.798 148.272C409.352 148.272 409.855 148.196 410.307 148.042C410.758 147.889 411.146 147.663 411.47 147.365C411.794 147.066 412.037 146.7 412.199 146.265L417.939 146.431C417.7 147.718 417.176 148.839 416.366 149.794C415.565 150.74 414.512 151.477 413.209 152.005C411.905 152.525 410.396 152.785 408.683 152.785ZM421.195 152.414V132.778H427.268V136.358H427.472C427.83 135.062 428.414 134.099 429.224 133.468C430.033 132.829 430.975 132.51 432.049 132.51C432.339 132.51 432.637 132.531 432.944 132.574C433.251 132.608 433.536 132.663 433.8 132.74V138.173C433.502 138.071 433.11 137.99 432.624 137.93C432.147 137.87 431.721 137.841 431.346 137.841C430.604 137.841 429.935 138.007 429.339 138.339C428.751 138.663 428.286 139.119 427.945 139.707C427.613 140.287 427.447 140.968 427.447 141.752V152.414H421.195ZM441.145 152.747C439.892 152.747 438.78 152.538 437.808 152.12C436.845 151.694 436.082 151.055 435.52 150.203C434.966 149.342 434.689 148.264 434.689 146.968C434.689 145.877 434.881 144.957 435.264 144.207C435.648 143.457 436.176 142.848 436.849 142.379C437.523 141.91 438.298 141.556 439.176 141.318C440.054 141.071 440.992 140.904 441.989 140.819C443.105 140.717 444.004 140.61 444.686 140.5C445.368 140.38 445.862 140.214 446.169 140.001C446.484 139.779 446.642 139.468 446.642 139.068V139.004C446.642 138.348 446.416 137.841 445.965 137.483C445.513 137.125 444.903 136.946 444.136 136.946C443.31 136.946 442.645 137.125 442.142 137.483C441.639 137.841 441.32 138.335 441.183 138.966L435.418 138.761C435.588 137.568 436.027 136.502 436.734 135.565C437.45 134.619 438.43 133.877 439.675 133.341C440.928 132.795 442.432 132.522 444.188 132.522C445.44 132.522 446.595 132.672 447.652 132.97C448.709 133.26 449.629 133.686 450.413 134.248C451.198 134.802 451.803 135.484 452.229 136.294C452.663 137.103 452.881 138.028 452.881 139.068V152.414H447V149.679H446.847C446.497 150.343 446.05 150.906 445.504 151.366C444.967 151.826 444.332 152.172 443.599 152.402C442.875 152.632 442.057 152.747 441.145 152.747ZM443.075 148.656C443.749 148.656 444.354 148.52 444.891 148.247C445.436 147.974 445.871 147.599 446.195 147.122C446.519 146.636 446.68 146.074 446.68 145.434V143.568C446.501 143.662 446.284 143.747 446.028 143.824C445.781 143.9 445.509 143.973 445.21 144.041C444.912 144.109 444.605 144.169 444.29 144.22C443.974 144.271 443.672 144.318 443.382 144.36C442.794 144.454 442.291 144.599 441.874 144.795C441.465 144.991 441.149 145.247 440.928 145.562C440.715 145.869 440.608 146.235 440.608 146.662C440.608 147.309 440.838 147.804 441.298 148.145C441.767 148.485 442.359 148.656 443.075 148.656ZM465.857 160.187C463.99 160.187 462.392 159.927 461.063 159.407C459.733 158.887 458.689 158.176 457.93 157.272C457.172 156.369 456.716 155.346 456.563 154.204L462.482 153.872C462.592 154.272 462.797 154.622 463.095 154.92C463.402 155.218 463.798 155.449 464.284 155.61C464.778 155.772 465.358 155.853 466.023 155.853C467.071 155.853 467.936 155.598 468.618 155.086C469.308 154.583 469.653 153.701 469.653 152.44V148.988H469.436C469.189 149.593 468.814 150.135 468.311 150.612C467.808 151.089 467.182 151.464 466.432 151.737C465.69 152.01 464.838 152.146 463.875 152.146C462.443 152.146 461.131 151.814 459.938 151.149C458.753 150.476 457.803 149.436 457.087 148.029C456.379 146.615 456.026 144.795 456.026 142.571C456.026 140.278 456.392 138.39 457.125 136.907C457.858 135.416 458.817 134.312 460.001 133.596C461.195 132.88 462.477 132.522 463.849 132.522C464.881 132.522 465.763 132.701 466.496 133.059C467.237 133.409 467.847 133.86 468.324 134.414C468.801 134.968 469.163 135.544 469.411 136.14H469.59V132.778H475.815V152.491C475.815 154.153 475.398 155.555 474.563 156.697C473.727 157.839 472.56 158.704 471.06 159.292C469.56 159.889 467.825 160.187 465.857 160.187ZM466.048 147.595C466.807 147.595 467.455 147.395 467.992 146.994C468.528 146.593 468.942 146.018 469.232 145.268C469.521 144.518 469.666 143.619 469.666 142.571C469.666 141.505 469.521 140.589 469.232 139.822C468.95 139.047 468.537 138.45 467.992 138.032C467.455 137.615 466.807 137.406 466.048 137.406C465.273 137.406 464.617 137.619 464.08 138.045C463.543 138.471 463.134 139.072 462.852 139.848C462.58 140.615 462.443 141.522 462.443 142.571C462.443 143.619 462.584 144.518 462.865 145.268C463.146 146.018 463.551 146.593 464.08 146.994C464.617 147.395 465.273 147.595 466.048 147.595ZM488.98 152.785C486.926 152.785 485.153 152.38 483.662 151.571C482.179 150.752 481.037 149.589 480.235 148.081C479.443 146.564 479.047 144.761 479.047 142.673C479.047 140.645 479.447 138.872 480.248 137.355C481.049 135.829 482.179 134.645 483.636 133.801C485.093 132.949 486.811 132.522 488.788 132.522C490.186 132.522 491.464 132.74 492.623 133.174C493.782 133.609 494.784 134.252 495.628 135.105C496.471 135.957 497.128 137.01 497.596 138.262C498.065 139.507 498.299 140.934 498.299 142.545V144.105H481.233V140.474H492.483C492.474 139.809 492.316 139.217 492.01 138.697C491.703 138.177 491.281 137.772 490.744 137.483C490.216 137.184 489.606 137.035 488.916 137.035C488.217 137.035 487.591 137.193 487.037 137.508C486.483 137.815 486.044 138.237 485.72 138.774C485.396 139.302 485.226 139.903 485.209 140.576V144.271C485.209 145.072 485.366 145.775 485.682 146.38C485.997 146.977 486.444 147.441 487.024 147.774C487.603 148.106 488.294 148.272 489.095 148.272C489.649 148.272 490.152 148.196 490.603 148.042C491.055 147.889 491.443 147.663 491.767 147.365C492.091 147.066 492.334 146.7 492.495 146.265L498.235 146.431C497.997 147.718 497.473 148.839 496.663 149.794C495.862 150.74 494.809 151.477 493.505 152.005C492.201 152.525 490.693 152.785 488.98 152.785Z" fill="#3C5154"/>
<path d="M125.128 265.225V291.407H118.8V265.225H125.128ZM129.101 291.407V271.771H135.045V275.376H135.263C135.672 274.183 136.362 273.241 137.334 272.551C138.305 271.86 139.464 271.515 140.811 271.515C142.175 271.515 143.342 271.865 144.314 272.563C145.285 273.262 145.903 274.2 146.167 275.376H146.372C146.738 274.208 147.454 273.275 148.52 272.576C149.585 271.869 150.842 271.515 152.291 271.515C154.149 271.515 155.657 272.112 156.817 273.305C157.976 274.49 158.555 276.117 158.555 278.188V291.407H152.304V279.62C152.304 278.64 152.052 277.894 151.55 277.383C151.047 276.863 150.395 276.603 149.594 276.603C148.733 276.603 148.055 276.884 147.561 277.447C147.075 278.001 146.832 278.747 146.832 279.684V291.407H140.824V279.556C140.824 278.644 140.576 277.924 140.082 277.396C139.588 276.867 138.936 276.603 138.126 276.603C137.581 276.603 137.099 276.735 136.682 277C136.264 277.255 135.936 277.622 135.697 278.099C135.467 278.576 135.352 279.139 135.352 279.786V291.407H129.101ZM162.429 298.771V271.771H168.616V275.133H168.808C169.064 274.536 169.426 273.961 169.895 273.407C170.372 272.853 170.977 272.402 171.71 272.052C172.451 271.694 173.338 271.515 174.369 271.515C175.733 271.515 177.007 271.873 178.192 272.589C179.385 273.305 180.348 274.409 181.081 275.9C181.814 277.392 182.18 279.292 182.18 281.602C182.18 283.826 181.826 285.688 181.119 287.188C180.42 288.688 179.474 289.813 178.281 290.563C177.096 291.313 175.78 291.688 174.331 291.688C173.342 291.688 172.486 291.527 171.761 291.203C171.037 290.879 170.427 290.453 169.933 289.924C169.447 289.396 169.072 288.829 168.808 288.224H168.68V298.771H162.429ZM168.552 281.589C168.552 282.646 168.693 283.566 168.974 284.35C169.264 285.134 169.677 285.744 170.214 286.179C170.76 286.605 171.412 286.818 172.17 286.818C172.937 286.818 173.589 286.605 174.126 286.179C174.663 285.744 175.068 285.134 175.341 284.35C175.622 283.566 175.763 282.646 175.763 281.589C175.763 280.532 175.622 279.616 175.341 278.84C175.068 278.065 174.663 277.464 174.126 277.038C173.598 276.612 172.946 276.399 172.17 276.399C171.403 276.399 170.751 276.608 170.214 277.025C169.677 277.443 169.264 278.039 168.974 278.815C168.693 279.59 168.552 280.515 168.552 281.589ZM190.992 291.74C189.739 291.74 188.627 291.531 187.655 291.113C186.692 290.687 185.929 290.048 185.367 289.196C184.813 288.335 184.536 287.257 184.536 285.961C184.536 284.87 184.727 283.95 185.111 283.2C185.494 282.45 186.023 281.84 186.696 281.372C187.369 280.903 188.145 280.549 189.023 280.311C189.901 280.063 190.838 279.897 191.835 279.812C192.952 279.71 193.851 279.603 194.533 279.492C195.215 279.373 195.709 279.207 196.016 278.994C196.331 278.772 196.489 278.461 196.489 278.061V277.997C196.489 277.34 196.263 276.833 195.811 276.475C195.36 276.117 194.75 275.938 193.983 275.938C193.156 275.938 192.492 276.117 191.989 276.475C191.486 276.833 191.166 277.328 191.03 277.958L185.264 277.754C185.435 276.561 185.874 275.495 186.581 274.558C187.297 273.612 188.277 272.87 189.521 272.333C190.774 271.788 192.279 271.515 194.034 271.515C195.287 271.515 196.442 271.664 197.499 271.963C198.556 272.252 199.476 272.679 200.26 273.241C201.044 273.795 201.649 274.477 202.075 275.286C202.51 276.096 202.727 277.021 202.727 278.061V291.407H196.847V288.671H196.693C196.344 289.336 195.896 289.899 195.351 290.359C194.814 290.819 194.179 291.164 193.446 291.394C192.722 291.625 191.904 291.74 190.992 291.74ZM192.922 287.649C193.595 287.649 194.2 287.512 194.737 287.24C195.283 286.967 195.717 286.592 196.041 286.115C196.365 285.629 196.527 285.066 196.527 284.427V282.561C196.348 282.654 196.131 282.74 195.875 282.816C195.628 282.893 195.355 282.965 195.057 283.034C194.759 283.102 194.452 283.161 194.137 283.213C193.821 283.264 193.519 283.311 193.229 283.353C192.641 283.447 192.138 283.592 191.72 283.788C191.311 283.984 190.996 284.24 190.774 284.555C190.561 284.862 190.455 285.228 190.455 285.654C190.455 286.302 190.685 286.796 191.145 287.137C191.614 287.478 192.206 287.649 192.922 287.649ZM215.716 291.778C213.645 291.778 211.868 291.352 210.385 290.5C208.911 289.647 207.777 288.463 206.985 286.946C206.192 285.42 205.796 283.656 205.796 281.653C205.796 279.642 206.192 277.877 206.985 276.36C207.786 274.835 208.923 273.646 210.398 272.794C211.881 271.941 213.649 271.515 215.703 271.515C217.519 271.515 219.1 271.843 220.446 272.5C221.801 273.156 222.858 274.085 223.617 275.286C224.384 276.48 224.788 277.882 224.831 279.492H218.989C218.869 278.487 218.529 277.698 217.966 277.127C217.412 276.556 216.688 276.271 215.793 276.271C215.068 276.271 214.433 276.475 213.888 276.884C213.342 277.285 212.916 277.882 212.61 278.674C212.311 279.458 212.162 280.43 212.162 281.589C212.162 282.748 212.311 283.728 212.61 284.529C212.916 285.322 213.342 285.923 213.888 286.332C214.433 286.733 215.068 286.933 215.793 286.933C216.372 286.933 216.884 286.809 217.327 286.562C217.779 286.315 218.149 285.953 218.439 285.475C218.729 284.99 218.912 284.402 218.989 283.711H224.831C224.771 285.331 224.367 286.745 223.617 287.956C222.875 289.166 221.831 290.108 220.485 290.781C219.146 291.446 217.557 291.778 215.716 291.778ZM239.114 271.771V276.373H226.726V271.771H239.114ZM229.322 267.066H235.573V285.233C235.573 285.616 235.633 285.927 235.752 286.166C235.88 286.396 236.063 286.562 236.302 286.664C236.54 286.758 236.826 286.805 237.158 286.805C237.397 286.805 237.648 286.784 237.912 286.741C238.185 286.69 238.39 286.647 238.526 286.613L239.472 291.126C239.174 291.211 238.752 291.318 238.206 291.446C237.67 291.573 237.026 291.654 236.276 291.688C234.81 291.757 233.553 291.586 232.505 291.177C231.465 290.759 230.668 290.112 230.114 289.234C229.569 288.356 229.304 287.252 229.322 285.923V267.066Z" fill="#3C5154"/>
<path d="M323.792 431.327V405.145H334.607C336.567 405.145 338.259 405.499 339.682 406.206C341.114 406.905 342.218 407.91 342.994 409.223C343.769 410.527 344.157 412.074 344.157 413.864C344.157 415.679 343.761 417.222 342.968 418.491C342.175 419.753 341.05 420.716 339.593 421.381C338.136 422.037 336.41 422.365 334.415 422.365H327.576V417.379H333.239C334.194 417.379 334.991 417.256 335.63 417.008C336.278 416.753 336.768 416.369 337.1 415.858C337.432 415.338 337.599 414.673 337.599 413.864C337.599 413.054 337.432 412.385 337.1 411.856C336.768 411.32 336.278 410.919 335.63 410.655C334.982 410.382 334.185 410.246 333.239 410.246H330.12V431.327H323.792ZM338.532 419.361L345.052 431.327H338.148L331.756 419.361H338.532ZM356.42 431.697C354.366 431.697 352.593 431.293 351.102 430.483C349.619 429.665 348.477 428.501 347.676 426.993C346.883 425.476 346.487 423.673 346.487 421.585C346.487 419.557 346.887 417.784 347.688 416.267C348.49 414.741 349.619 413.557 351.076 412.713C352.534 411.861 354.251 411.435 356.228 411.435C357.626 411.435 358.904 411.652 360.063 412.087C361.223 412.521 362.224 413.165 363.068 414.017C363.912 414.869 364.568 415.922 365.037 417.175C365.505 418.419 365.74 419.847 365.74 421.457V423.017H348.673V419.386H359.923C359.914 418.722 359.757 418.129 359.45 417.609C359.143 417.089 358.721 416.685 358.184 416.395C357.656 416.097 357.046 415.947 356.356 415.947C355.657 415.947 355.031 416.105 354.477 416.42C353.923 416.727 353.484 417.149 353.16 417.686C352.836 418.214 352.666 418.815 352.649 419.489V423.183C352.649 423.984 352.806 424.687 353.122 425.293C353.437 425.889 353.885 426.354 354.464 426.686C355.044 427.018 355.734 427.185 356.535 427.185C357.089 427.185 357.592 427.108 358.044 426.955C358.495 426.801 358.883 426.575 359.207 426.277C359.531 425.979 359.774 425.612 359.936 425.178L365.676 425.344C365.437 426.631 364.913 427.751 364.103 428.706C363.302 429.652 362.25 430.389 360.946 430.918C359.642 431.437 358.133 431.697 356.42 431.697ZM380.016 411.69V416.293H367.628V411.69H380.016ZM370.224 406.986H376.475V425.152C376.475 425.535 376.535 425.847 376.654 426.085C376.782 426.315 376.965 426.481 377.204 426.584C377.442 426.678 377.728 426.724 378.06 426.724C378.299 426.724 378.55 426.703 378.815 426.66C379.087 426.609 379.292 426.567 379.428 426.533L380.374 431.045C380.076 431.131 379.654 431.237 379.109 431.365C378.572 431.493 377.928 431.574 377.178 431.608C375.712 431.676 374.455 431.506 373.407 431.097C372.367 430.679 371.57 430.031 371.016 429.153C370.471 428.276 370.207 427.172 370.224 425.842V406.986ZM395.875 422.851V411.69H402.114V431.327H396.156V427.67H395.952C395.517 428.872 394.776 429.827 393.727 430.534C392.687 431.233 391.43 431.582 389.956 431.582C388.618 431.582 387.442 431.276 386.427 430.662C385.413 430.048 384.625 429.192 384.062 428.092C383.5 426.984 383.214 425.689 383.206 424.206V411.69H389.457V422.979C389.466 424.044 389.747 424.883 390.301 425.497C390.855 426.111 391.609 426.418 392.564 426.418C393.186 426.418 393.744 426.281 394.239 426.008C394.741 425.727 395.138 425.322 395.427 424.794C395.726 424.257 395.875 423.609 395.875 422.851ZM406.093 431.327V411.69H412.165V415.27H412.37C412.728 413.974 413.311 413.011 414.121 412.381C414.931 411.741 415.872 411.422 416.946 411.422C417.236 411.422 417.534 411.443 417.841 411.486C418.148 411.52 418.434 411.575 418.698 411.652V417.085C418.399 416.983 418.007 416.902 417.522 416.842C417.044 416.783 416.618 416.753 416.243 416.753C415.502 416.753 414.833 416.919 414.236 417.251C413.648 417.575 413.184 418.031 412.843 418.619C412.51 419.199 412.344 419.881 412.344 420.665V431.327H406.093ZM427.496 420.128V431.327H421.245V411.69H427.19V415.295H427.407C427.842 414.094 428.583 413.152 429.631 412.47C430.68 411.78 431.928 411.435 433.377 411.435C434.758 411.435 435.955 411.746 436.969 412.368C437.992 412.981 438.785 413.842 439.347 414.95C439.918 416.05 440.2 417.337 440.191 418.811V431.327H433.94V420.038C433.948 418.947 433.671 418.095 433.109 417.481C432.555 416.868 431.783 416.561 430.795 416.561C430.138 416.561 429.559 416.706 429.056 416.996C428.562 417.277 428.178 417.682 427.905 418.21C427.641 418.739 427.505 419.378 427.496 420.128ZM461.205 417.686L455.465 417.839C455.405 417.43 455.243 417.068 454.979 416.753C454.715 416.429 454.37 416.178 453.943 415.999C453.526 415.811 453.04 415.717 452.486 415.717C451.762 415.717 451.144 415.862 450.632 416.152C450.13 416.442 449.882 416.834 449.891 417.328C449.882 417.712 450.036 418.044 450.351 418.325C450.675 418.606 451.25 418.832 452.077 419.003L455.861 419.719C457.821 420.094 459.279 420.716 460.233 421.585C461.196 422.455 461.682 423.605 461.691 425.037C461.682 426.383 461.282 427.555 460.489 428.553C459.705 429.55 458.631 430.325 457.267 430.879C455.904 431.425 454.344 431.697 452.588 431.697C449.784 431.697 447.573 431.122 445.953 429.972C444.343 428.812 443.422 427.261 443.192 425.318L449.367 425.165C449.503 425.881 449.857 426.426 450.428 426.801C450.999 427.176 451.728 427.364 452.614 427.364C453.415 427.364 454.067 427.214 454.57 426.916C455.073 426.618 455.328 426.222 455.337 425.727C455.328 425.284 455.132 424.93 454.749 424.666C454.365 424.393 453.764 424.18 452.946 424.027L449.52 423.375C447.551 423.017 446.086 422.356 445.122 421.393C444.159 420.422 443.682 419.186 443.691 417.686C443.682 416.374 444.032 415.253 444.739 414.324C445.446 413.386 446.452 412.67 447.756 412.176C449.06 411.682 450.598 411.435 452.371 411.435C455.03 411.435 457.127 411.993 458.661 413.109C460.195 414.217 461.043 415.743 461.205 417.686Z" fill="#3C5154"/>
</g>
<defs>
<clipPath id="clip0_563_519">
<rect width="594" height="644" fill="white"/>
</clipPath>
</defs>
</svg>
