<svg width="128" height="37" viewBox="0 0 128 37" fill="none" xmlns="http://www.w3.org/2000/svg">
<g clip-path="url(#clip0_563_464)">
<path d="M24.0498 15.4663V-6.08155e-05H29.0458C29.8877 -0.0155656 30.728 0.07838 31.5451 0.279355C32.1653 0.431279 32.7489 0.702579 33.2626 1.07769C33.694 1.41069 34.0311 1.84789 34.2413 2.34703C34.4629 2.88308 34.5721 3.45794 34.5621 4.03684C34.5631 4.41111 34.503 4.78311 34.3842 5.13853C34.2624 5.49375 34.08 5.82584 33.8449 6.12048C33.5832 6.43289 33.2728 6.70234 32.9256 6.91881C32.5228 7.1716 32.0863 7.36775 31.6287 7.50159C32.7755 7.72513 33.64 8.13139 34.2224 8.72038C34.5185 9.03158 34.7484 9.39822 34.8984 9.79862C35.0484 10.199 35.1156 10.625 35.096 11.0515C35.1043 11.6683 34.9793 12.2798 34.7293 12.8451C34.4831 13.3847 34.114 13.861 33.6508 14.2368C33.1406 14.6465 32.5532 14.9522 31.9226 15.1363C31.1654 15.3597 30.3779 15.4674 29.5877 15.4556L24.0498 15.4663ZM26.1717 6.91881H28.9703C29.4948 6.92896 30.0179 6.86352 30.5233 6.72455C30.9142 6.61761 31.2805 6.43687 31.6017 6.19233C31.8834 5.97144 32.1041 5.68406 32.2434 5.35674C32.3826 5.01878 32.4532 4.65711 32.451 4.2923C32.451 3.38398 32.1733 2.7187 31.6179 2.29647C31.0787 1.8707 30.2051 1.66047 29.0377 1.66047H26.1717V6.91881ZM26.1717 8.40903V13.8058H29.5607C30.088 13.8164 30.6136 13.7464 31.1191 13.5982C31.5168 13.4852 31.8848 13.2881 32.1976 13.0207C32.4735 12.7805 32.6855 12.4772 32.815 12.1372C32.9508 11.7763 33.0184 11.3939 33.0145 11.0089C33.0294 10.649 32.9595 10.2905 32.8103 9.96173C32.661 9.63295 32.4365 9.34284 32.1545 9.11422C31.5829 8.65119 30.7174 8.41967 29.5581 8.41967L26.1717 8.40903Z" fill="#DFE0C7"/>
<path d="M41.4134 13.7074H48.1942V15.4663H39.2969V0H41.4161L41.4134 13.7074Z" fill="#DFE0C7"/>
<path d="M61.2838 0V1.70577H53.7616V6.8417H59.8549V8.4836H53.7616V13.7606H61.2838V15.4663H51.6289V0H61.2838Z" fill="#DFE0C7"/>
<path d="M66.943 0.0692185C67.0643 0.144196 67.1696 0.24182 67.2531 0.356618L76.331 12.0123C76.3095 11.826 76.2933 11.645 76.2879 11.48C76.2825 11.315 76.2879 11.1341 76.2879 10.9691V2.97572e-05H78.1455V15.4664H77.0671C76.9212 15.4709 76.7762 15.4417 76.6438 15.3812C76.5092 15.3097 76.3923 15.2098 76.3014 15.0885L67.2423 3.4435C67.2585 3.62179 67.2692 3.80009 67.2773 3.97572C67.2854 4.15135 67.2773 4.3057 67.2773 4.4494V15.4664H65.417V2.97572e-05H66.5116C66.6589 -0.00929591 66.8063 0.0143567 66.943 0.0692185Z" fill="#DFE0C7"/>
<path d="M96.6379 7.73841C96.6537 8.82084 96.4644 9.89664 96.0798 10.9104C95.732 11.8228 95.1958 12.6538 94.5053 13.3507C93.816 14.035 92.9895 14.5698 92.0787 14.9207C91.0746 15.3027 90.0057 15.4915 88.9296 15.4769H83.0547V-8.0887e-05H88.9161C89.9921 -0.0133236 91.0607 0.175417 92.0652 0.55609C92.9767 0.908258 93.8032 1.4449 94.4918 2.13146C95.1813 2.83124 95.7173 3.66374 96.0663 4.57702C96.4539 5.58669 96.6478 6.65874 96.6379 7.73841ZM94.4594 7.73841C94.4737 6.87375 94.3407 6.01286 94.0658 5.19173C93.8308 4.48963 93.4517 3.84285 92.9523 3.29171C92.4668 2.77135 91.8687 2.36568 91.2025 2.10485C90.4744 1.8234 89.6979 1.68422 88.9161 1.69504H85.1981V13.7711H88.9269C89.7087 13.782 90.4852 13.6428 91.2133 13.3613C91.8781 13.1004 92.4758 12.6969 92.9631 12.1798C93.4641 11.6318 93.8434 10.9864 94.0766 10.2851C94.3478 9.46334 94.4772 8.60248 94.4594 7.73841Z" fill="#DFE0C7"/>
<path d="M110.273 0V1.70577H102.751V6.8417H108.841V8.4836H102.751V13.7606H110.273V15.4663H100.618V0H110.273Z" fill="#DFE0C7"/>
<path d="M128 7.73841C128.016 8.82083 127.827 9.89663 127.442 10.9104C127.095 11.8228 126.558 12.6537 125.868 13.3507C125.179 14.0353 124.352 14.5701 123.441 14.9207C122.436 15.3027 121.366 15.4915 120.289 15.4769H114.42V-8.56674e-05H120.279C121.355 -0.0132779 122.425 0.175455 123.43 0.556085C124.342 0.907689 125.169 1.4444 125.857 2.13146C126.546 2.83124 127.082 3.66373 127.432 4.57701C127.818 5.58686 128.011 6.6589 128 7.73841ZM125.825 7.73841C125.838 6.87382 125.705 6.01314 125.431 5.19173C125.195 4.48947 124.815 3.8427 124.315 3.2917C123.83 2.77079 123.232 2.36503 122.565 2.10485C121.837 1.82339 121.06 1.68421 120.279 1.69504H116.55V13.7711H120.279C121.06 13.782 121.837 13.6428 122.565 13.3613C123.23 13.1012 123.828 12.6975 124.315 12.1798C124.817 11.632 125.197 10.9866 125.431 10.2851C125.705 9.46368 125.838 8.60299 125.825 7.73841Z" fill="#DFE0C7"/>
<path d="M11.1566 21.1025V23.9073H4.61839V27.899H10.0646V30.7091H4.61839V36.8297H0.900391V21.1025H11.1566Z" fill="#DFE0C7"/>
<path d="M18.2209 36.827H14.5029V21.1025H18.2209V36.827Z" fill="#DFE0C7"/>
<path d="M24.6186 21.1237C24.7202 21.1351 24.8194 21.162 24.9125 21.2036C25.0052 21.2463 25.0907 21.3028 25.1659 21.3712C25.2619 21.4631 25.352 21.5609 25.4356 21.6639L33.0037 31.1082C32.974 30.8048 32.9524 30.5121 32.9363 30.2274C32.9201 29.9426 32.9147 29.6765 32.9147 29.429V21.1024H36.1743V36.8269H34.2412C33.994 36.8337 33.7481 36.7902 33.5186 36.6992C33.2928 36.5881 33.0976 36.4247 32.9497 36.2228L25.4383 26.8558C25.4598 27.1219 25.4787 27.388 25.4922 27.6541C25.5057 27.9202 25.5137 28.1624 25.5137 28.3939V36.8216H22.2676V21.1024H24.2142C24.3493 21.1002 24.4845 21.1073 24.6186 21.1237Z" fill="#DFE0C7"/>
<path d="M54.7319 36.827H51.8578C51.5766 36.8379 51.2991 36.7606 51.0651 36.6061C50.8638 36.4674 50.7126 36.2688 50.6338 36.0393L49.6928 33.2984H43.6345L42.6936 36.0393C42.6053 36.2529 42.4577 36.4374 42.2676 36.5715C42.0445 36.7376 41.7704 36.823 41.4911 36.8137H38.6035L44.7723 21.1025H48.5469L54.7319 36.827ZM44.4865 30.8156H48.8408L47.3741 26.5099C47.2797 26.2438 47.1692 25.9138 47.0398 25.5439C46.9104 25.174 46.789 24.7722 46.665 24.3411C46.5464 24.7775 46.4278 25.1847 46.3037 25.5599C46.1797 25.9351 46.0611 26.2571 45.9532 26.5312L44.4865 30.8156Z" fill="#DFE0C7"/>
<path d="M59.4585 21.1239C59.5601 21.1348 59.6593 21.1618 59.7524 21.2037C59.8451 21.2464 59.9305 21.3029 60.0058 21.3713C60.1018 21.4632 60.1918 21.561 60.2754 21.6641L67.8435 31.1083C67.8139 30.805 67.7923 30.5122 67.7788 30.2275C67.7653 29.9428 67.7545 29.6766 67.7545 29.4292V21.1026H71.0169V36.827H69.0918C68.8447 36.8336 68.5988 36.7901 68.3693 36.6993C68.1443 36.5881 67.95 36.4246 67.8031 36.223L60.2889 26.8559C60.3105 27.122 60.3293 27.3881 60.3455 27.6542C60.3617 27.9203 60.3671 28.1625 60.3671 28.394V36.8217H57.1074V21.1026H59.046C59.1838 21.1 59.3217 21.1071 59.4585 21.1239Z" fill="#DFE0C7"/>
<path d="M85.4415 32.7583C85.5336 32.7577 85.625 32.7739 85.7111 32.8062C85.8055 32.8444 85.8909 32.9014 85.9618 32.9738L87.4285 34.496C86.7991 35.3096 85.9694 35.9508 85.0182 36.3587C83.9293 36.8029 82.7584 37.0177 81.5806 36.9894C80.465 37.0079 79.3575 36.8005 78.3263 36.38C77.4056 35.9948 76.5784 35.4206 75.8998 34.6956C75.2199 33.9568 74.6973 33.0908 74.363 32.1489C73.9982 31.123 73.8158 30.0427 73.8237 28.9556C73.8117 27.8495 74.0196 26.7519 74.4358 25.725C74.8249 24.7715 75.4075 23.9066 76.1478 23.1836C76.901 22.458 77.7965 21.892 78.7793 21.5204C79.8573 21.1139 81.0036 20.9125 82.1576 20.927C82.725 20.9232 83.2913 20.9758 83.848 21.084C84.3541 21.1812 84.8497 21.3256 85.3282 21.5151C85.7732 21.6907 86.1988 21.9109 86.5981 22.1724C86.9714 22.4179 87.3159 22.7035 87.6254 23.0239L86.3797 24.6738C86.2962 24.774 86.2001 24.8634 86.0939 24.9399C85.9589 25.0292 85.7978 25.0722 85.6356 25.0624C85.5065 25.0637 85.3789 25.0345 85.2635 24.9772C85.1476 24.9187 85.0236 24.8495 84.8915 24.767L84.4601 24.5009C84.2827 24.3954 84.0959 24.3063 83.902 24.2348C83.6566 24.1442 83.4041 24.0739 83.1471 24.0245C82.8139 23.9619 82.4751 23.9325 82.136 23.9367C81.5052 23.9289 80.8795 24.0485 80.2972 24.288C79.7533 24.5155 79.2664 24.858 78.8709 25.2912C78.4573 25.7577 78.1412 26.3004 77.9408 26.8879C77.7111 27.5579 77.599 28.2616 77.6091 28.9689C77.5971 29.6988 77.7092 30.4256 77.9408 31.119C78.1377 31.6988 78.4462 32.2355 78.8494 32.6997C79.2211 33.1185 79.6812 33.4518 80.1975 33.6764C80.7137 33.9012 81.2724 34.0155 81.8367 34.0116C82.1439 34.0124 82.4509 33.9955 82.7561 33.9611C83.0184 33.9324 83.2769 33.8762 83.5272 33.7934C83.7634 33.7161 83.9903 33.6134 84.2039 33.4874C84.4359 33.3509 84.6543 33.1932 84.8564 33.0164C84.9425 32.9451 85.0377 32.8851 85.1395 32.8381C85.2336 32.7914 85.3363 32.7642 85.4415 32.7583Z" fill="#DFE0C7"/>
<path d="M100.453 21.1025V23.9073H93.9152V27.577H98.9247V30.2754H93.9152V34.0222H100.453V36.827H90.208V21.1025H100.453Z" fill="#DFE0C7"/>
<path d="M5.26559 6.28809V7.04384H3.09249V12.9249H2.18119V7.04384H0V6.28809H5.26559Z" fill="#DFE0C7"/>
<path d="M12.1322 12.9249H11.229V9.90719H7.6054V12.9249H6.69141V6.28809H7.6054V9.24723H11.229V6.28809H12.1322V12.9249Z" fill="#DFE0C7"/>
<path d="M18.3989 6.28809V7.01989H15.1635V9.22595H17.7949V9.92848H15.1716V12.1931H18.407V12.9249H14.2549V6.28809H18.3989Z" fill="#DFE0C7"/>
<path d="M108.96 34.6422C108.985 34.6427 109.011 34.6484 109.034 34.6589C109.057 34.6695 109.078 34.6846 109.095 34.7034L109.453 35.0866C109.178 35.4019 108.835 35.6535 108.45 35.8237C108.002 36.0112 107.519 36.1019 107.032 36.0898C106.58 36.0962 106.132 36.012 105.714 35.8423C105.33 35.6851 104.985 35.4482 104.703 35.1478C104.418 34.8388 104.198 34.477 104.056 34.0833C103.898 33.6416 103.821 33.1759 103.826 32.7075C103.821 32.2378 103.904 31.7712 104.072 31.3317C104.229 30.9349 104.464 30.573 104.765 30.2673C105.072 29.9639 105.439 29.7265 105.843 29.5701C106.28 29.401 106.746 29.3169 107.216 29.3226C107.626 29.3096 108.035 29.3775 108.419 29.5224C108.803 29.6672 109.154 29.8861 109.451 30.1662L109.154 30.5787C109.133 30.6081 109.108 30.6342 109.079 30.6558C109.042 30.677 109 30.6872 108.957 30.6851C108.91 30.6838 108.865 30.6679 108.828 30.6399L108.666 30.5334C108.604 30.4882 108.529 30.4429 108.445 30.3924C108.349 30.338 108.249 30.2917 108.146 30.254C108.014 30.2067 107.879 30.1702 107.741 30.1449C107.563 30.1137 107.383 30.0994 107.202 30.1023C106.864 30.0989 106.529 30.1604 106.215 30.2833C105.923 30.4047 105.66 30.5861 105.444 30.8155C105.22 31.0532 105.049 31.3341 104.94 31.6404C104.815 31.9898 104.754 32.3583 104.759 32.7288C104.753 33.1055 104.814 33.4803 104.94 33.8358C105.046 34.1395 105.213 34.419 105.431 34.6581C105.636 34.8796 105.888 35.054 106.169 35.1691C106.462 35.2874 106.775 35.3472 107.092 35.3447C107.272 35.3464 107.452 35.3349 107.631 35.3101C107.782 35.2904 107.93 35.2538 108.073 35.201C108.207 35.154 108.334 35.0915 108.453 35.0147C108.579 34.9355 108.698 34.8465 108.809 34.7486C108.826 34.7217 108.847 34.6983 108.873 34.68C108.899 34.6617 108.929 34.6488 108.96 34.6422Z" fill="#DFE0C7"/>
<path d="M117.363 32.6969C117.368 33.1634 117.287 33.627 117.123 34.0647C116.974 34.4611 116.745 34.8233 116.449 35.1291C116.153 35.4321 115.796 35.6698 115.4 35.8263C114.532 36.154 113.572 36.154 112.704 35.8263C112.305 35.6703 111.945 35.4316 111.647 35.1265C111.352 34.8206 111.122 34.4584 110.973 34.062C110.653 33.1775 110.653 32.211 110.973 31.3264C111.123 30.9305 111.352 30.5685 111.647 30.262C111.943 29.9582 112.299 29.7189 112.693 29.5594C113.561 29.2286 114.522 29.2286 115.39 29.5594C115.785 29.719 116.142 29.9582 116.438 30.262C116.733 30.5685 116.963 30.9305 117.112 31.3264C117.28 31.7643 117.365 32.2288 117.363 32.6969ZM116.43 32.6969C116.436 32.3246 116.379 31.9541 116.26 31.6005C116.16 31.2972 115.997 31.0175 115.783 30.7782C115.575 30.5525 115.318 30.3761 115.031 30.262C114.399 30.0207 113.698 30.0207 113.066 30.262C112.779 30.3761 112.522 30.5525 112.313 30.7782C112.096 31.0157 111.931 31.2959 111.831 31.6005C111.604 32.3143 111.604 33.0794 111.831 33.7933C111.932 34.0968 112.096 34.376 112.313 34.6129C112.522 34.837 112.779 35.0124 113.066 35.1265C113.699 35.3642 114.398 35.3642 115.031 35.1265C115.317 35.0124 115.574 34.837 115.783 34.6129C115.997 34.3743 116.159 34.0955 116.26 33.7933C116.378 33.4396 116.436 33.0691 116.43 32.6969Z" fill="#DFE0C7"/>
<path d="M118.41 35.5044C118.41 35.3508 118.47 35.203 118.577 35.0919C118.63 35.0378 118.693 34.9952 118.763 34.9669C118.835 34.9345 118.914 34.9182 118.993 34.919C119.072 34.9187 119.15 34.935 119.222 34.9669C119.293 34.9955 119.357 35.0381 119.41 35.0919C119.463 35.1453 119.505 35.2075 119.534 35.2756C119.564 35.3484 119.578 35.4261 119.578 35.5044C119.579 35.5828 119.564 35.6606 119.534 35.7333C119.505 35.8014 119.463 35.8636 119.41 35.9169C119.356 35.969 119.292 36.0106 119.222 36.0393C119.149 36.0682 119.071 36.0826 118.993 36.0819C118.914 36.0829 118.836 36.0685 118.763 36.0393C118.694 36.0112 118.63 35.9695 118.577 35.9169C118.526 35.8634 118.485 35.8012 118.456 35.7333C118.425 35.6608 118.41 35.583 118.41 35.5044Z" fill="#DFE0C7"/>
</g>
<defs>
<clipPath id="clip0_563_464">
<rect width="128" height="37" fill="white"/>
</clipPath>
</defs>
</svg>
